<svg width="369" height="98" viewBox="0 0 369 98" fill="none" xmlns="http://www.w3.org/2000/svg">
<path d="M5.33008 96.53H368.795" stroke="black" stroke-width="0.999992"/>
<path d="M155.595 21.0676C154.739 21.0676 153.973 20.8761 153.297 20.493C152.632 20.1099 152.103 19.5804 151.708 18.9044C151.325 18.2284 151.134 17.4566 151.134 16.5891C151.134 15.7103 151.325 14.9329 151.708 14.2569C152.103 13.5809 152.632 13.057 153.297 12.6852C153.973 12.3021 154.739 12.1106 155.595 12.1106C156.305 12.1106 156.947 12.2458 157.522 12.5162C158.108 12.7866 158.581 13.1922 158.942 13.733L158.316 14.1893C158.001 13.7386 157.607 13.4063 157.133 13.1922C156.66 12.9781 156.148 12.8711 155.595 12.8711C154.908 12.8711 154.289 13.0288 153.736 13.3443C153.196 13.6485 152.768 14.0823 152.452 14.6456C152.148 15.1977 151.996 15.8455 151.996 16.5891C151.996 17.3327 152.148 17.9862 152.452 18.5495C152.768 19.1016 153.196 19.5353 153.736 19.8508C154.289 20.155 154.908 20.3071 155.595 20.3071C156.148 20.3071 156.66 20.2001 157.133 19.986C157.607 19.7719 158.001 19.4396 158.316 18.9889L158.942 19.4452C158.581 19.986 158.108 20.3916 157.522 20.662C156.947 20.9324 156.305 21.0676 155.595 21.0676ZM165.882 21.0676C165.104 21.0676 164.4 20.8873 163.769 20.5268C163.149 20.1663 162.654 19.6536 162.282 18.9889C161.921 18.3129 161.741 17.513 161.741 16.5891C161.741 15.6652 161.921 14.8709 162.282 14.2062C162.654 13.5302 163.149 13.0119 163.769 12.6514C164.4 12.2909 165.104 12.1106 165.882 12.1106C166.715 12.1106 167.459 12.3021 168.112 12.6852C168.777 13.057 169.295 13.5809 169.667 14.2569C170.05 14.9329 170.242 15.7103 170.242 16.5891C170.242 17.4679 170.05 18.2453 169.667 18.9213C169.295 19.5973 168.777 20.1268 168.112 20.5099C167.459 20.8817 166.715 21.0676 165.882 21.0676ZM161.454 24.2786V12.1782H162.265V15.0681L162.13 16.606L162.299 18.1439V24.2786H161.454ZM165.831 20.3071C166.507 20.3071 167.115 20.155 167.656 19.8508C168.197 19.5353 168.619 19.0959 168.924 18.5326C169.239 17.9693 169.397 17.3214 169.397 16.5891C169.397 15.8455 169.239 15.1977 168.924 14.6456C168.619 14.0823 168.197 13.6485 167.656 13.3443C167.115 13.0288 166.507 12.8711 165.831 12.8711C165.155 12.8711 164.546 13.0288 164.006 13.3443C163.476 13.6485 163.054 14.0823 162.738 14.6456C162.434 15.1977 162.282 15.8455 162.282 16.5891C162.282 17.3214 162.434 17.9693 162.738 18.5326C163.054 19.0959 163.476 19.5353 164.006 19.8508C164.546 20.155 165.155 20.3071 165.831 20.3071ZM176.64 21.0676C175.75 21.0676 174.961 20.8761 174.274 20.493C173.598 20.1099 173.063 19.5804 172.668 18.9044C172.285 18.2284 172.094 17.4566 172.094 16.5891C172.094 15.7103 172.274 14.9385 172.635 14.2738C173.006 13.5978 173.513 13.0683 174.156 12.6852C174.798 12.3021 175.519 12.1106 176.319 12.1106C177.119 12.1106 177.834 12.2965 178.465 12.6683C179.107 13.0401 179.609 13.564 179.969 14.24C180.341 14.9047 180.527 15.6765 180.527 16.5553C180.527 16.5891 180.521 16.6285 180.51 16.6736C180.51 16.7074 180.51 16.7468 180.51 16.7919H172.719V16.1328H180.054L179.716 16.4539C179.727 15.7666 179.581 15.1526 179.276 14.6118C178.983 14.0597 178.583 13.6316 178.076 13.3274C177.569 13.0119 176.984 12.8542 176.319 12.8542C175.665 12.8542 175.08 13.0119 174.561 13.3274C174.054 13.6316 173.654 14.0597 173.361 14.6118C173.068 15.1526 172.922 15.7723 172.922 16.4708V16.6229C172.922 17.344 173.08 17.9862 173.395 18.5495C173.722 19.1016 174.167 19.5353 174.73 19.8508C175.294 20.155 175.936 20.3071 176.657 20.3071C177.22 20.3071 177.744 20.2057 178.229 20.0029C178.724 19.8001 179.141 19.4903 179.479 19.0734L179.969 19.6311C179.586 20.1043 179.102 20.4648 178.516 20.7127C177.941 20.9493 177.316 21.0676 176.64 21.0676ZM182.651 20.4423L181.806 20.2564C182.166 20.2789 182.459 20.1494 182.685 19.8677C182.91 19.5748 183.085 19.1804 183.209 18.6847C183.333 18.189 183.423 17.6313 183.479 17.0116C183.547 16.3807 183.597 15.7385 183.631 15.085L183.749 12.1782H189.952V20.5944H189.107V12.9387H184.51L184.409 15.1357C184.386 15.7554 184.347 16.375 184.29 16.9947C184.234 17.6031 184.144 18.1664 184.02 18.6847C183.896 19.1917 183.721 19.6029 183.496 19.9184C183.282 20.2339 183 20.4085 182.651 20.4423ZM181.417 23.197V20.2564H191.371V23.197H190.577V21H182.228V23.197H181.417ZM199.376 21V18.9889L199.343 18.6847V15.3723C199.343 14.5498 199.117 13.9245 198.667 13.4964C198.227 13.0683 197.579 12.8542 196.723 12.8542C196.115 12.8542 195.546 12.9612 195.016 13.1753C194.498 13.3781 194.053 13.6429 193.681 13.9696L193.259 13.3612C193.698 12.9669 194.228 12.6627 194.847 12.4486C195.467 12.2233 196.115 12.1106 196.791 12.1106C197.884 12.1106 198.723 12.3866 199.309 12.9387C199.895 13.4908 200.188 14.3132 200.188 15.4061V21H199.376ZM196.199 21.0676C195.546 21.0676 194.977 20.9662 194.492 20.7634C194.019 20.5493 193.653 20.2508 193.394 19.8677C193.146 19.4846 193.022 19.0452 193.022 18.5495C193.022 18.0988 193.123 17.6932 193.326 17.3327C193.54 16.9609 193.89 16.6623 194.374 16.437C194.858 16.2004 195.506 16.0821 196.317 16.0821H199.562V16.7412H196.334C195.422 16.7412 194.78 16.9102 194.408 17.2482C194.047 17.5862 193.867 18.0087 193.867 18.5157C193.867 19.079 194.081 19.5297 194.509 19.8677C194.937 20.2057 195.54 20.3747 196.317 20.3747C197.061 20.3747 197.686 20.2057 198.193 19.8677C198.712 19.5297 199.095 19.0396 199.343 18.3974L199.579 18.972C199.343 19.6142 198.937 20.1268 198.362 20.5099C197.799 20.8817 197.078 21.0676 196.199 21.0676Z" fill="black"/>
<path d="M20.2559 21V12.1782H23.9739C24.9428 12.1782 25.709 12.3697 26.2723 12.7528C26.8356 13.1359 27.1173 13.6936 27.1173 14.4259C27.1173 15.147 26.8413 15.6934 26.2892 16.0652C25.7484 16.437 25.0442 16.6229 24.1767 16.6229L24.4133 16.3694C25.4498 16.3694 26.2103 16.5609 26.6948 16.944C27.1793 17.3271 27.4215 17.8904 27.4215 18.634C27.4215 19.3889 27.1455 19.9747 26.5934 20.3916C26.0526 20.7972 25.2132 21 24.0753 21H20.2559ZM21.084 20.3071H24.0584C24.8809 20.3071 25.5062 20.1719 25.9343 19.9015C26.3624 19.6311 26.5765 19.1973 26.5765 18.6002C26.5765 17.9918 26.385 17.5524 26.0019 17.282C25.6301 17.0003 25.0273 16.8595 24.1936 16.8595H21.084V20.3071ZM21.084 16.2004H23.9232C24.6668 16.2004 25.2414 16.0596 25.647 15.7779C26.0639 15.4962 26.2723 15.0794 26.2723 14.5273C26.2723 13.9752 26.0639 13.564 25.647 13.2936C25.2414 13.0119 24.6668 12.8711 23.9232 12.8711H21.084V16.2004ZM32.0278 21V12.6852L32.2644 12.9387H28.5802V12.1782H36.3204V12.9387H32.6362L32.8728 12.6852V21H32.0278ZM41.2322 21.0676C40.3872 21.0676 39.6324 20.8761 38.9676 20.493C38.3142 20.1099 37.7903 19.5804 37.3959 18.9044C37.0129 18.2284 36.8213 17.4566 36.8213 16.5891C36.8213 15.7103 37.0129 14.9385 37.3959 14.2738C37.7903 13.5978 38.3142 13.0683 38.9676 12.6852C39.6324 12.3021 40.3872 12.1106 41.2322 12.1106C42.0772 12.1106 42.8321 12.3021 43.4968 12.6852C44.1616 13.0683 44.6855 13.5978 45.0685 14.2738C45.4516 14.9385 45.6431 15.7103 45.6431 16.5891C45.6431 17.4566 45.4516 18.2284 45.0685 18.9044C44.6855 19.5804 44.1616 20.1099 43.4968 20.493C42.8321 20.8761 42.0772 21.0676 41.2322 21.0676ZM41.2322 20.3071C41.9082 20.3071 42.5166 20.155 43.0574 19.8508C43.5982 19.5353 44.0207 19.0959 44.3249 18.5326C44.6291 17.9693 44.7812 17.3214 44.7812 16.5891C44.7812 15.8455 44.6291 15.1977 44.3249 14.6456C44.0207 14.0823 43.5982 13.6485 43.0574 13.3443C42.5166 13.0288 41.9082 12.8711 41.2322 12.8711C40.5562 12.8711 39.9478 13.0288 39.407 13.3443C38.8775 13.6485 38.455 14.0823 38.1395 14.6456C37.8353 15.1977 37.6832 15.8455 37.6832 16.5891C37.6832 17.3214 37.8353 17.9693 38.1395 18.5326C38.455 19.0959 38.8775 19.5353 39.407 19.8508C39.9478 20.155 40.5562 20.3071 41.2322 20.3071ZM52.8398 21.0676C52.0624 21.0676 51.3582 20.8873 50.7273 20.5268C50.1076 20.1663 49.6119 19.6536 49.2401 18.9889C48.8795 18.3129 48.6993 17.513 48.6993 16.5891C48.6993 15.6652 48.8795 14.8709 49.2401 14.2062C49.6119 13.5302 50.1076 13.0119 50.7273 12.6514C51.3582 12.2909 52.0624 12.1106 52.8398 12.1106C53.6735 12.1106 54.4171 12.3021 55.0706 12.6852C55.7353 13.057 56.2536 13.5809 56.6254 14.2569C57.0084 14.9329 57.2 15.7103 57.2 16.5891C57.2 17.4679 57.0084 18.2453 56.6254 18.9213C56.2536 19.5973 55.7353 20.1268 55.0706 20.5099C54.4171 20.8817 53.6735 21.0676 52.8398 21.0676ZM48.412 24.2786V12.1782H49.2232V15.0681L49.088 16.606L49.257 18.1439V24.2786H48.412ZM52.7891 20.3071C53.4651 20.3071 54.0735 20.155 54.6143 19.8508C55.1551 19.5353 55.5776 19.0959 55.8818 18.5326C56.1972 17.9693 56.355 17.3214 56.355 16.5891C56.355 15.8455 56.1972 15.1977 55.8818 14.6456C55.5776 14.0823 55.1551 13.6485 54.6143 13.3443C54.0735 13.0288 53.4651 12.8711 52.7891 12.8711C52.1131 12.8711 51.5047 13.0288 50.9639 13.3443C50.4343 13.6485 50.0118 14.0823 49.6964 14.6456C49.3922 15.1977 49.2401 15.8455 49.2401 16.5891C49.2401 17.3214 49.3922 17.9693 49.6964 18.5326C50.0118 19.0959 50.4343 19.5353 50.9639 19.8508C51.5047 20.155 52.1131 20.3071 52.7891 20.3071ZM59.9478 21V12.1782H60.7928V16.2004H66.7754V12.1782H67.6204V21H66.7754V16.944H60.7928V21H59.9478ZM71.2695 21V12.1782H72.1145V19.6987L78.4013 12.1782H79.1449V21H78.2999V13.4795L72.0131 21H71.2695ZM89.2957 21L85.5101 16.5891L86.2199 16.1835L90.3097 21H89.2957ZM82.7892 21V12.1782H83.6342V21H82.7892ZM83.3638 16.9102V16.1835H86.1354V16.9102H83.3638ZM86.2706 16.6736L85.4932 16.5384L89.1098 12.1782H90.0393L86.2706 16.6736Z" fill="black"/>
<path d="M278.957 17.9242C277.954 17.9242 277.149 17.6932 276.54 17.2313C275.932 16.7581 275.628 16.0539 275.628 15.1188V12.1782H276.473V15.0681C276.473 15.7779 276.709 16.3131 277.182 16.6736C277.656 17.0341 278.286 17.2144 279.075 17.2144C279.548 17.2144 280.05 17.1524 280.579 17.0285C281.109 16.9046 281.65 16.7187 282.202 16.4708L282.185 17.1637C281.633 17.4116 281.081 17.6031 280.529 17.7383C279.988 17.8622 279.464 17.9242 278.957 17.9242ZM282.1 21V12.1782H282.945V21H282.1ZM290.243 21.0676C289.353 21.0676 288.564 20.8761 287.877 20.493C287.201 20.1099 286.666 19.5804 286.271 18.9044C285.888 18.2284 285.697 17.4566 285.697 16.5891C285.697 15.7103 285.877 14.9385 286.238 14.2738C286.609 13.5978 287.116 13.0683 287.759 12.6852C288.401 12.3021 289.122 12.1106 289.922 12.1106C290.722 12.1106 291.437 12.2965 292.068 12.6683C292.71 13.0401 293.212 13.564 293.572 14.24C293.944 14.9047 294.13 15.6765 294.13 16.5553C294.13 16.5891 294.124 16.6285 294.113 16.6736C294.113 16.7074 294.113 16.7468 294.113 16.7919H286.322V16.1328H293.657L293.319 16.4539C293.33 15.7666 293.184 15.1526 292.879 14.6118C292.586 14.0597 292.186 13.6316 291.679 13.3274C291.172 13.0119 290.587 12.8542 289.922 12.8542C289.268 12.8542 288.683 13.0119 288.164 13.3274C287.657 13.6316 287.257 14.0597 286.964 14.6118C286.671 15.1526 286.525 15.7723 286.525 16.4708V16.6229C286.525 17.344 286.683 17.9862 286.998 18.5495C287.325 19.1016 287.77 19.5353 288.333 19.8508C288.897 20.155 289.539 20.3071 290.26 20.3071C290.823 20.3071 291.347 20.2057 291.832 20.0029C292.327 19.8001 292.744 19.4903 293.082 19.0734L293.572 19.6311C293.189 20.1043 292.705 20.4648 292.119 20.7127C291.544 20.9493 290.919 21.0676 290.243 21.0676ZM298.084 21V12.6852L298.321 12.9387H294.636V12.1782H302.377V12.9387H298.692L298.929 12.6852V21H298.084ZM304.186 21V12.1782H307.904C308.873 12.1782 309.639 12.3697 310.202 12.7528C310.765 13.1359 311.047 13.6936 311.047 14.4259C311.047 15.147 310.771 15.6934 310.219 16.0652C309.678 16.437 308.974 16.6229 308.107 16.6229L308.343 16.3694C309.38 16.3694 310.14 16.5609 310.625 16.944C311.109 17.3271 311.351 17.8904 311.351 18.634C311.351 19.3889 311.075 19.9747 310.523 20.3916C309.982 20.7972 309.143 21 308.005 21H304.186ZM305.014 20.3071H307.988C308.811 20.3071 309.436 20.1719 309.864 19.9015C310.292 19.6311 310.506 19.1973 310.506 18.6002C310.506 17.9918 310.315 17.5524 309.932 17.282C309.56 17.0003 308.957 16.8595 308.123 16.8595H305.014V20.3071ZM305.014 16.2004H307.853C308.597 16.2004 309.171 16.0596 309.577 15.7779C309.994 15.4962 310.202 15.0794 310.202 14.5273C310.202 13.9752 309.994 13.564 309.577 13.2936C309.171 13.0119 308.597 12.8711 307.853 12.8711H305.014V16.2004ZM318.003 21.0676C317.112 21.0676 316.324 20.8761 315.637 20.493C314.961 20.1099 314.425 19.5804 314.031 18.9044C313.648 18.2284 313.456 17.4566 313.456 16.5891C313.456 15.7103 313.637 14.9385 313.997 14.2738C314.369 13.5978 314.876 13.0683 315.518 12.6852C316.16 12.3021 316.882 12.1106 317.681 12.1106C318.481 12.1106 319.197 12.2965 319.828 12.6683C320.47 13.0401 320.971 13.564 321.332 14.24C321.704 14.9047 321.89 15.6765 321.89 16.5553C321.89 16.5891 321.884 16.6285 321.873 16.6736C321.873 16.7074 321.873 16.7468 321.873 16.7919H314.082V16.1328H321.416L321.078 16.4539C321.09 15.7666 320.943 15.1526 320.639 14.6118C320.346 14.0597 319.946 13.6316 319.439 13.3274C318.932 13.0119 318.346 12.8542 317.681 12.8542C317.028 12.8542 316.442 13.0119 315.924 13.3274C315.417 13.6316 315.017 14.0597 314.724 14.6118C314.431 15.1526 314.285 15.7723 314.285 16.4708V16.6229C314.285 17.344 314.442 17.9862 314.758 18.5495C315.084 19.1016 315.53 19.5353 316.093 19.8508C316.656 20.155 317.298 20.3071 318.019 20.3071C318.583 20.3071 319.107 20.2057 319.591 20.0029C320.087 19.8001 320.504 19.4903 320.842 19.0734L321.332 19.6311C320.949 20.1043 320.464 20.4648 319.878 20.7127C319.304 20.9493 318.679 21.0676 318.003 21.0676ZM329.095 21.0676C328.318 21.0676 327.614 20.8873 326.983 20.5268C326.363 20.1663 325.867 19.6536 325.496 18.9889C325.135 18.3129 324.955 17.513 324.955 16.5891C324.955 15.6652 325.135 14.8709 325.496 14.2062C325.867 13.5302 326.363 13.0119 326.983 12.6514C327.614 12.2909 328.318 12.1106 329.095 12.1106C329.929 12.1106 330.673 12.3021 331.326 12.6852C331.991 13.057 332.509 13.5809 332.881 14.2569C333.264 14.9329 333.455 15.7103 333.455 16.5891C333.455 17.4679 333.264 18.2453 332.881 18.9213C332.509 19.5973 331.991 20.1268 331.326 20.5099C330.673 20.8817 329.929 21.0676 329.095 21.0676ZM324.667 24.2786V12.1782H325.479V15.0681L325.343 16.606L325.512 18.1439V24.2786H324.667ZM329.045 20.3071C329.721 20.3071 330.329 20.155 330.87 19.8508C331.411 19.5353 331.833 19.0959 332.137 18.5326C332.453 17.9693 332.61 17.3214 332.61 16.5891C332.61 15.8455 332.453 15.1977 332.137 14.6456C331.833 14.0823 331.411 13.6485 330.87 13.3443C330.329 13.0288 329.721 12.8711 329.045 12.8711C328.369 12.8711 327.76 13.0288 327.219 13.3443C326.69 13.6485 326.267 14.0823 325.952 14.6456C325.648 15.1977 325.496 15.8455 325.496 16.5891C325.496 17.3214 325.648 17.9693 325.952 18.5326C326.267 19.0959 326.69 19.5353 327.219 19.8508C327.76 20.155 328.369 20.3071 329.045 20.3071ZM336.203 21V12.1782H342.237V12.9387H336.812L337.048 12.7021V21H336.203Z" fill="black"/>
<path d="M51.4631 81.201C49.2387 81.201 47.3359 80.8794 45.7547 80.2362C44.1735 79.593 42.9541 78.6818 42.0965 77.5026C41.2657 76.3234 40.8503 74.9164 40.8503 73.2816C40.8503 71.7004 41.2657 70.347 42.0965 69.2214C42.9273 68.0958 44.1333 67.2382 45.7145 66.6486C47.2957 66.0322 49.2119 65.724 51.4631 65.724C53.7143 65.724 55.6305 66.0322 57.2117 66.6486C58.8197 67.2382 60.0391 68.0958 60.8699 69.2214C61.7275 70.347 62.1563 71.7004 62.1563 73.2816C62.1563 74.9164 61.7275 76.3234 60.8699 77.5026C60.0123 78.6818 58.7795 79.593 57.1715 80.2362C55.5903 80.8794 53.6875 81.201 51.4631 81.201ZM51.4631 79.4322C54.1699 79.4322 56.2871 78.8828 57.8147 77.784C59.3423 76.6852 60.1061 75.1844 60.1061 73.2816C60.1061 71.4056 59.3423 69.9182 57.8147 68.8194C56.2871 67.7206 54.1699 67.1712 51.4631 67.1712C48.7563 67.1712 46.6525 67.7206 45.1517 68.8194C43.6509 69.9182 42.9005 71.4056 42.9005 73.2816C42.9005 75.1844 43.6509 76.6852 45.1517 77.784C46.6525 78.8828 48.7563 79.4322 51.4631 79.4322ZM51.4631 65.4828C53.8751 65.4828 55.7511 64.987 57.0911 63.9954C58.4311 63.0038 59.1011 61.6772 59.1011 60.0156C59.1011 58.2736 58.4043 56.9068 57.0107 55.9152C55.6439 54.9236 53.7947 54.4278 51.4631 54.4278C49.1583 54.4278 47.3225 54.9236 45.9557 55.9152C44.5889 56.9068 43.9055 58.2602 43.9055 59.9754C43.9055 61.6638 44.5621 63.0038 45.8753 63.9954C47.2153 64.987 49.0779 65.4828 51.4631 65.4828ZM51.4631 66.8898C49.4263 66.8898 47.6843 66.6218 46.2371 66.0858C44.8167 65.523 43.7313 64.719 42.9809 63.6738C42.2305 62.6286 41.8553 61.3824 41.8553 59.9352C41.8553 58.4344 42.2439 57.148 43.0211 56.076C43.8251 54.9772 44.9507 54.133 46.3979 53.5434C47.8451 52.9538 49.5335 52.659 51.4631 52.659C53.4195 52.659 55.1213 52.9538 56.5685 53.5434C58.0157 54.133 59.1413 54.9772 59.9453 56.076C60.7493 57.148 61.1513 58.4344 61.1513 59.9352C61.1513 61.3824 60.7627 62.6286 59.9855 63.6738C59.2351 64.719 58.1363 65.523 56.6891 66.0858C55.2419 66.6218 53.4999 66.8898 51.4631 66.8898Z" fill="black"/>
<path d="M0 0.5H363.465" stroke="black" stroke-width="0.999992"/>
<path d="M0 29.6801H363.465" stroke="black" stroke-width="0.999992"/>
<path d="M240.91 0.51001V96.112" stroke="black" stroke-width="0.99996"/>
<path d="M111.92 0.51001V96.112" stroke="black" stroke-width="0.99996"/>
<path opacity="0.9" d="M173.566 81.331C172.36 81.331 171.207 81.2238 170.109 81.0094C169.037 80.795 168.058 80.4198 167.174 79.8838L168.018 78.2356C168.742 78.6912 169.586 79.0262 170.551 79.2406C171.516 79.4282 172.521 79.522 173.566 79.522C176.728 79.522 179.261 78.5036 181.164 76.4668C183.066 74.4032 184.018 71.3212 184.018 67.2208C184.018 66.5776 183.978 65.787 183.897 64.849C183.817 63.911 183.643 62.9864 183.375 62.0752L184.098 62.2762C183.911 63.8306 183.388 65.1572 182.53 66.256C181.673 67.328 180.574 68.1588 179.234 68.7484C177.921 69.338 176.447 69.6328 174.812 69.6328C172.936 69.6328 171.288 69.2978 169.867 68.6278C168.474 67.931 167.375 66.9528 166.571 65.6932C165.794 64.4336 165.405 62.9596 165.405 61.2712C165.405 59.556 165.807 58.0686 166.611 56.809C167.442 55.5226 168.554 54.531 169.948 53.8342C171.368 53.1374 172.976 52.789 174.772 52.789C177.237 52.789 179.301 53.3518 180.963 54.4774C182.651 55.603 183.924 57.2244 184.782 59.3416C185.639 61.432 186.068 63.9512 186.068 66.8992C186.068 70.0616 185.545 72.7148 184.5 74.8588C183.455 77.0028 181.994 78.6242 180.118 79.723C178.242 80.795 176.058 81.331 173.566 81.331ZM175.093 67.864C176.621 67.864 177.974 67.5692 179.154 66.9796C180.333 66.39 181.244 65.586 181.887 64.5676C182.557 63.5492 182.892 62.4102 182.892 61.1506C182.892 60.0518 182.584 59.0066 181.968 58.015C181.351 56.9966 180.453 56.1658 179.274 55.5226C178.095 54.8794 176.621 54.5578 174.852 54.5578C173.378 54.5578 172.092 54.8392 170.993 55.402C169.894 55.938 169.023 56.7018 168.38 57.6934C167.764 58.685 167.455 59.8642 167.455 61.231C167.455 63.241 168.139 64.849 169.506 66.055C170.872 67.261 172.735 67.864 175.093 67.864Z" fill="black"/>
<path d="M297.42 81V53.7444L298.345 54.7092H290.546V52.86H299.47V81H297.42ZM317.582 81.201C315.438 81.201 313.535 80.6248 311.874 79.4724C310.212 78.32 308.912 76.6852 307.974 74.568C307.036 72.424 306.567 69.878 306.567 66.93C306.567 63.982 307.036 61.4494 307.974 59.3322C308.912 57.1882 310.212 55.54 311.874 54.3876C313.535 53.2352 315.438 52.659 317.582 52.659C319.753 52.659 321.656 53.2352 323.29 54.3876C324.952 55.54 326.252 57.1882 327.19 59.3322C328.128 61.4494 328.597 63.982 328.597 66.93C328.597 69.878 328.128 72.424 327.19 74.568C326.252 76.6852 324.952 78.32 323.29 79.4724C321.656 80.6248 319.753 81.201 317.582 81.201ZM317.582 79.3116C319.378 79.3116 320.945 78.8292 322.285 77.8644C323.625 76.8728 324.671 75.4524 325.421 73.6032C326.171 71.754 326.547 69.5296 326.547 66.93C326.547 64.3036 326.171 62.0792 325.421 60.2568C324.671 58.4076 323.625 57.0006 322.285 56.0358C320.945 55.0442 319.378 54.5484 317.582 54.5484C315.813 54.5484 314.245 55.0442 312.879 56.0358C311.539 57.0006 310.493 58.4076 309.743 60.2568C308.993 62.0792 308.617 64.3036 308.617 66.93C308.617 69.5296 308.993 71.754 309.743 73.6032C310.493 75.4524 311.539 76.8728 312.879 77.8644C314.245 78.8292 315.813 79.3116 317.582 79.3116Z" fill="black"/>
</svg>
