<svg width="122" height="122" viewBox="0 0 122 122" fill="none" xmlns="http://www.w3.org/2000/svg">
<circle cx="61" cy="61" r="61" fill="#FCFCFC"/>
<path d="M25.9209 49C25.8069 49 25.6993 48.981 25.5979 48.943C25.4966 48.905 25.3636 48.791 25.1989 48.601C25.0343 48.411 24.7936 48.1007 24.4769 47.67C24.1603 47.2267 23.7233 46.606 23.1659 45.808C22.7733 45.238 22.4376 44.7693 22.1589 44.402C21.8929 44.0347 21.6459 43.756 21.4179 43.566C21.2026 43.3633 20.9683 43.224 20.7149 43.148C20.4616 43.0593 20.1513 43.015 19.7839 43.015C19.6573 43.015 19.5243 43.0213 19.3849 43.034C19.2456 43.0467 19.1063 43.0593 18.9669 43.072L18.9479 42.73C19.7459 42.692 20.3666 42.673 20.8099 42.673C21.2279 42.673 21.5699 42.711 21.8359 42.787C22.1146 42.8503 22.3616 42.9833 22.5769 43.186C22.8049 43.376 23.0519 43.6547 23.3179 44.022C23.5966 44.3767 23.9449 44.8453 24.3629 45.428C24.8696 46.1373 25.3193 46.739 25.7119 47.233C26.1173 47.727 26.5226 48.107 26.9279 48.373C27.3333 48.6263 27.7956 48.7593 28.3149 48.772C28.3403 48.772 28.3529 48.81 28.3529 48.886C28.3529 48.962 28.3403 49 28.3149 49H25.9209ZM16.6489 49C16.6236 49 16.6109 48.962 16.6109 48.886C16.6109 48.81 16.6236 48.772 16.6489 48.772C17.1176 48.772 17.4723 48.7403 17.7129 48.677C17.9536 48.6137 18.1119 48.487 18.1879 48.297C18.2639 48.107 18.3019 47.8283 18.3019 47.461V38.664C18.3019 38.2967 18.2639 38.0243 18.1879 37.847C18.1119 37.657 17.9536 37.5303 17.7129 37.467C17.4849 37.391 17.1366 37.353 16.6679 37.353C16.6426 37.353 16.6299 37.315 16.6299 37.239C16.6299 37.163 16.6426 37.125 16.6679 37.125C16.9719 37.125 17.3139 37.1377 17.6939 37.163C18.0739 37.1757 18.4729 37.182 18.8909 37.182C19.3469 37.182 19.7649 37.1757 20.1449 37.163C20.5376 37.1377 20.8859 37.125 21.1899 37.125C21.2153 37.125 21.2279 37.163 21.2279 37.239C21.2279 37.315 21.2153 37.353 21.1899 37.353C20.7213 37.353 20.3666 37.391 20.1259 37.467C19.8979 37.543 19.7396 37.676 19.6509 37.866C19.5749 38.056 19.5369 38.3347 19.5369 38.702V47.461C19.5369 47.8283 19.5749 48.107 19.6509 48.297C19.7269 48.487 19.8853 48.6137 20.1259 48.677C20.3666 48.7403 20.7213 48.772 21.1899 48.772C21.2153 48.772 21.2279 48.81 21.2279 48.886C21.2279 48.962 21.2153 49 21.1899 49C20.8733 49 20.5249 48.9937 20.1449 48.981C19.7649 48.9683 19.3469 48.962 18.8909 48.962C18.4729 48.962 18.0676 48.9683 17.6749 48.981C17.2949 48.9937 16.9529 49 16.6489 49ZM21.4179 42.977L21.0759 42.806L23.4699 39.462C24.0653 38.6513 24.3503 38.1003 24.3249 37.809C24.3123 37.505 23.9893 37.353 23.3559 37.353C23.3306 37.353 23.3179 37.315 23.3179 37.239C23.3179 37.163 23.3306 37.125 23.3559 37.125C23.6599 37.125 23.9703 37.1377 24.2869 37.163C24.6036 37.1757 25.0153 37.182 25.5219 37.182C26.0286 37.182 26.4213 37.1757 26.6999 37.163C26.9913 37.1377 27.2699 37.125 27.5359 37.125C27.5739 37.125 27.5929 37.163 27.5929 37.239C27.5929 37.315 27.5739 37.353 27.5359 37.353C27.0926 37.353 26.6873 37.429 26.3199 37.581C25.9526 37.7203 25.5916 37.9483 25.2369 38.265C24.8949 38.569 24.5339 38.9743 24.1539 39.481L21.4179 42.977ZM32.3597 49.247C31.6124 49.247 30.96 49.0633 30.4027 48.696C29.8454 48.3287 29.4147 47.841 29.1107 47.233C28.8067 46.6123 28.6547 45.9473 28.6547 45.238C28.6547 44.5793 28.775 44.0093 29.0157 43.528C29.2564 43.0467 29.5794 42.654 29.9847 42.35C30.39 42.0333 30.827 41.799 31.2957 41.647C31.777 41.495 32.2457 41.419 32.7017 41.419C33.4744 41.419 34.133 41.609 34.6777 41.989C35.235 42.369 35.6594 42.8567 35.9507 43.452C36.242 44.0473 36.3877 44.6743 36.3877 45.333C36.3877 46.1437 36.204 46.8403 35.8367 47.423C35.4694 48.0057 34.9817 48.4553 34.3737 48.772C33.7657 49.0887 33.0944 49.247 32.3597 49.247ZM32.9107 48.886C33.582 48.886 34.114 48.6517 34.5067 48.183C34.8994 47.7017 35.0957 46.929 35.0957 45.865C35.0957 45.067 34.9627 44.364 34.6967 43.756C34.4434 43.1353 34.0887 42.654 33.6327 42.312C33.1767 41.9573 32.6574 41.78 32.0747 41.78C31.4034 41.78 30.8777 42.027 30.4977 42.521C30.1177 43.015 29.9277 43.7243 29.9277 44.649C29.9277 45.4217 30.0544 46.131 30.3077 46.777C30.561 47.423 30.9094 47.936 31.3527 48.316C31.8087 48.696 32.328 48.886 32.9107 48.886ZM39.3805 45.523V45.143H44.4915V45.523H39.3805ZM38.8865 47.461V43.205C38.8865 42.6477 38.8105 42.293 38.6585 42.141C38.5192 41.9763 38.1962 41.894 37.6895 41.894C37.6515 41.894 37.6325 41.856 37.6325 41.78C37.6325 41.704 37.6515 41.666 37.6895 41.666C37.9302 41.666 38.2025 41.6723 38.5065 41.685C38.8105 41.6977 39.1208 41.704 39.4375 41.704C39.7415 41.704 40.0455 41.6977 40.3495 41.685C40.6535 41.6723 40.9258 41.666 41.1665 41.666C41.1918 41.666 41.2045 41.704 41.2045 41.78C41.2045 41.856 41.1918 41.894 41.1665 41.894C40.6345 41.894 40.2988 41.9827 40.1595 42.16C40.0202 42.3373 39.9505 42.6983 39.9505 43.243V47.461C39.9505 48.0057 40.0202 48.3603 40.1595 48.525C40.2988 48.6897 40.6345 48.772 41.1665 48.772C41.1918 48.772 41.2045 48.81 41.2045 48.886C41.2045 48.962 41.1918 49 41.1665 49C40.9132 49 40.6345 48.9937 40.3305 48.981C40.0392 48.9683 39.7415 48.962 39.4375 48.962C39.1208 48.962 38.8105 48.9683 38.5065 48.981C38.2025 48.9937 37.9238 49 37.6705 49C37.6325 49 37.6135 48.962 37.6135 48.886C37.6135 48.81 37.6325 48.772 37.6705 48.772C38.1898 48.772 38.5192 48.6897 38.6585 48.525C38.8105 48.3603 38.8865 48.0057 38.8865 47.461ZM43.9975 47.461V43.205C43.9975 42.6477 43.9215 42.293 43.7695 42.141C43.6302 41.9763 43.3072 41.894 42.8005 41.894C42.7625 41.894 42.7435 41.856 42.7435 41.78C42.7435 41.704 42.7625 41.666 42.8005 41.666C43.0412 41.666 43.3135 41.6723 43.6175 41.685C43.9215 41.6977 44.2318 41.704 44.5485 41.704C44.8525 41.704 45.1565 41.6977 45.4605 41.685C45.7645 41.6723 46.0368 41.666 46.2775 41.666C46.3028 41.666 46.3155 41.704 46.3155 41.78C46.3155 41.856 46.3028 41.894 46.2775 41.894C45.7455 41.894 45.4098 41.9827 45.2705 42.16C45.1312 42.3373 45.0615 42.6983 45.0615 43.243V47.461C45.0615 48.0057 45.1312 48.3603 45.2705 48.525C45.4098 48.6897 45.7455 48.772 46.2775 48.772C46.3028 48.772 46.3155 48.81 46.3155 48.886C46.3155 48.962 46.3028 49 46.2775 49C46.0242 49 45.7455 48.9937 45.4415 48.981C45.1502 48.9683 44.8525 48.962 44.5485 48.962C44.2318 48.962 43.9152 48.9683 43.5985 48.981C43.2945 48.9937 43.0222 49 42.7815 49C42.7435 49 42.7245 48.962 42.7245 48.886C42.7245 48.81 42.7435 48.772 42.7815 48.772C43.3008 48.772 43.6302 48.6897 43.7695 48.525C43.9215 48.3603 43.9975 48.0057 43.9975 47.461ZM51.2484 49.228C50.387 49.228 49.684 49.0443 49.1394 48.677C48.5947 48.297 48.1894 47.822 47.9234 47.252C47.67 46.6693 47.5434 46.0803 47.5434 45.485C47.5434 44.8517 47.6637 44.288 47.9044 43.794C48.1577 43.3 48.487 42.882 48.8924 42.54C49.2977 42.198 49.7474 41.9383 50.2414 41.761C50.7354 41.5837 51.2167 41.495 51.6854 41.495C52.0527 41.495 52.401 41.5457 52.7304 41.647C53.0724 41.7357 53.351 41.8687 53.5664 42.046C53.7944 42.2233 53.9084 42.426 53.9084 42.654C53.9084 42.8187 53.8514 42.9643 53.7374 43.091C53.6234 43.205 53.4587 43.262 53.2434 43.262C53.0407 43.262 52.8697 43.1987 52.7304 43.072C52.6037 42.9453 52.496 42.7997 52.4074 42.635C52.268 42.407 52.1034 42.2233 51.9134 42.084C51.7234 41.9447 51.4384 41.875 51.0584 41.875C50.3364 41.875 49.779 42.16 49.3864 42.73C48.9937 43.2873 48.7974 44.0157 48.7974 44.915C48.7974 45.561 48.905 46.1627 49.1204 46.72C49.3484 47.2773 49.6967 47.727 50.1654 48.069C50.634 48.3983 51.242 48.563 51.9894 48.563C52.3314 48.563 52.667 48.5187 52.9964 48.43C53.3257 48.3413 53.636 48.1767 53.9274 47.936C53.9527 47.9107 53.9844 47.9233 54.0224 47.974C54.073 48.0247 54.0857 48.0627 54.0604 48.088C53.617 48.4807 53.1737 48.772 52.7304 48.962C52.287 49.1393 51.793 49.228 51.2484 49.228ZM56.9319 49C56.9066 49 56.8939 48.962 56.8939 48.886C56.8939 48.81 56.9066 48.772 56.9319 48.772C57.4512 48.772 57.7869 48.6897 57.9389 48.525C58.0909 48.3603 58.1669 48.0057 58.1669 47.461V43.243C58.1669 42.7237 58.1099 42.3817 57.9959 42.217C57.8819 42.0397 57.6222 41.951 57.2169 41.951C56.7356 41.951 56.3492 42.103 56.0579 42.407C55.7666 42.6983 55.5956 43.281 55.5449 44.155C55.5449 44.1803 55.5069 44.193 55.4309 44.193C55.3549 44.193 55.3169 44.1803 55.3169 44.155C55.3169 43.9777 55.3169 43.7117 55.3169 43.357C55.3169 42.9897 55.3106 42.616 55.2979 42.236C55.2979 41.856 55.2979 41.5457 55.2979 41.305C55.2979 41.2417 55.3359 41.21 55.4119 41.21C55.4879 41.21 55.5259 41.2417 55.5259 41.305C55.5259 41.4823 55.8172 41.59 56.3999 41.628C56.9826 41.666 57.7489 41.685 58.6989 41.685C59.3196 41.685 59.8642 41.6787 60.3329 41.666C60.8142 41.6533 61.1879 41.6217 61.4539 41.571C61.7199 41.5077 61.8529 41.419 61.8529 41.305C61.8529 41.2417 61.8909 41.21 61.9669 41.21C62.0429 41.21 62.0809 41.2417 62.0809 41.305C62.0809 41.5457 62.0809 41.856 62.0809 42.236C62.0809 42.616 62.0746 42.9897 62.0619 43.357C62.0619 43.7117 62.0619 43.9777 62.0619 44.155C62.0619 44.1803 62.0239 44.193 61.9479 44.193C61.8719 44.193 61.8339 44.1803 61.8339 44.155C61.7832 43.281 61.5996 42.6983 61.2829 42.407C60.9789 42.103 60.5926 41.951 60.1239 41.951C59.7312 41.951 59.4842 42.0397 59.3829 42.217C59.2816 42.3817 59.2309 42.7237 59.2309 43.243V47.461C59.2309 48.0057 59.3006 48.3603 59.4399 48.525C59.5792 48.6897 59.9086 48.772 60.4279 48.772C60.4659 48.772 60.4849 48.81 60.4849 48.886C60.4849 48.962 60.4659 49 60.4279 49C60.1872 49 59.9149 48.9937 59.6109 48.981C59.3196 48.9683 59.0156 48.962 58.6989 48.962C58.3949 48.962 58.0846 48.9683 57.7679 48.981C57.4639 48.9937 57.1852 49 56.9319 49ZM68.6711 49.114C68.6204 49.1393 68.5697 49.152 68.5191 49.152C68.3544 49.152 68.1961 49.019 68.0441 48.753C67.8921 48.4743 67.8161 48.0753 67.8161 47.556V43.965C67.8161 43.1797 67.7021 42.6287 67.4741 42.312C67.2587 41.9953 66.9737 41.837 66.6191 41.837C66.3024 41.837 66.0427 41.9193 65.8401 42.084C65.6374 42.236 65.4854 42.4197 65.3841 42.635C65.2954 42.8503 65.2321 43.053 65.1941 43.243C65.1561 43.4203 65.0927 43.5977 65.0041 43.775C64.9154 43.9397 64.7381 44.022 64.4721 44.022C64.2567 44.022 64.0984 43.965 63.9971 43.851C63.8957 43.7243 63.8451 43.5913 63.8451 43.452C63.8451 43.2113 63.9591 42.977 64.1871 42.749C64.4277 42.521 64.7254 42.312 65.0801 42.122C65.4474 41.9193 65.8274 41.761 66.2201 41.647C66.6254 41.533 66.9864 41.476 67.3031 41.476C67.8224 41.476 68.2151 41.647 68.4811 41.989C68.7471 42.3183 68.8801 42.787 68.8801 43.395V46.948C68.8801 47.3913 68.9371 47.7143 69.0511 47.917C69.1651 48.1197 69.3487 48.221 69.6021 48.221C69.8301 48.221 70.1467 48.1387 70.5521 47.974C70.6154 47.9487 70.6597 47.974 70.6851 48.05C70.7104 48.1133 70.6914 48.1577 70.6281 48.183L68.6711 49.114ZM65.2511 49.133C64.7697 49.133 64.4024 49.0063 64.1491 48.753C63.8957 48.487 63.7691 48.1767 63.7691 47.822C63.7691 47.5687 63.8324 47.3407 63.9591 47.138C64.0984 46.9227 64.3137 46.7263 64.6051 46.549C64.8964 46.3717 65.2701 46.2007 65.7261 46.036L68.0061 45.181L68.0631 45.428L66.0491 46.207C65.8211 46.2957 65.6311 46.397 65.4791 46.511C65.3271 46.625 65.2131 46.7517 65.1371 46.891C65.0737 47.0303 65.0421 47.1823 65.0421 47.347C65.0421 47.6383 65.1371 47.8917 65.3271 48.107C65.5171 48.3223 65.7767 48.43 66.1061 48.43C66.2327 48.43 66.3657 48.411 66.5051 48.373C66.6444 48.335 66.8154 48.2527 67.0181 48.126L68.2151 47.404L68.2531 47.651L66.8471 48.563C66.5431 48.7657 66.2644 48.9113 66.0111 49C65.7704 49.0887 65.5171 49.133 65.2511 49.133ZM72.983 45.523V45.143H78.094V45.523H72.983ZM72.489 47.461V43.205C72.489 42.6477 72.413 42.293 72.261 42.141C72.1217 41.9763 71.7987 41.894 71.292 41.894C71.254 41.894 71.235 41.856 71.235 41.78C71.235 41.704 71.254 41.666 71.292 41.666C71.5327 41.666 71.805 41.6723 72.109 41.685C72.413 41.6977 72.7234 41.704 73.04 41.704C73.344 41.704 73.648 41.6977 73.952 41.685C74.256 41.6723 74.5284 41.666 74.769 41.666C74.7944 41.666 74.807 41.704 74.807 41.78C74.807 41.856 74.7944 41.894 74.769 41.894C74.237 41.894 73.9014 41.9827 73.762 42.16C73.6227 42.3373 73.553 42.6983 73.553 43.243V47.461C73.553 48.0057 73.6227 48.3603 73.762 48.525C73.9014 48.6897 74.237 48.772 74.769 48.772C74.7944 48.772 74.807 48.81 74.807 48.886C74.807 48.962 74.7944 49 74.769 49C74.5157 49 74.237 48.9937 73.933 48.981C73.6417 48.9683 73.344 48.962 73.04 48.962C72.7234 48.962 72.413 48.9683 72.109 48.981C71.805 48.9937 71.5264 49 71.273 49C71.235 49 71.216 48.962 71.216 48.886C71.216 48.81 71.235 48.772 71.273 48.772C71.7924 48.772 72.1217 48.6897 72.261 48.525C72.413 48.3603 72.489 48.0057 72.489 47.461ZM77.6 47.461V43.205C77.6 42.6477 77.524 42.293 77.372 42.141C77.2327 41.9763 76.9097 41.894 76.403 41.894C76.365 41.894 76.346 41.856 76.346 41.78C76.346 41.704 76.365 41.666 76.403 41.666C76.6437 41.666 76.916 41.6723 77.22 41.685C77.524 41.6977 77.8344 41.704 78.151 41.704C78.455 41.704 78.759 41.6977 79.063 41.685C79.367 41.6723 79.6394 41.666 79.88 41.666C79.9054 41.666 79.918 41.704 79.918 41.78C79.918 41.856 79.9054 41.894 79.88 41.894C79.348 41.894 79.0124 41.9827 78.873 42.16C78.7337 42.3373 78.664 42.6983 78.664 43.243V47.461C78.664 48.0057 78.7337 48.3603 78.873 48.525C79.0124 48.6897 79.348 48.772 79.88 48.772C79.9054 48.772 79.918 48.81 79.918 48.886C79.918 48.962 79.9054 49 79.88 49C79.6267 49 79.348 48.9937 79.044 48.981C78.7527 48.9683 78.455 48.962 78.151 48.962C77.8344 48.962 77.5177 48.9683 77.201 48.981C76.897 48.9937 76.6247 49 76.384 49C76.346 49 76.327 48.962 76.327 48.886C76.327 48.81 76.346 48.772 76.384 48.772C76.9034 48.772 77.2327 48.6897 77.372 48.525C77.524 48.3603 77.6 48.0057 77.6 47.461ZM82.7229 49C82.6976 49 82.6849 48.962 82.6849 48.886C82.6849 48.81 82.6976 48.772 82.7229 48.772C83.2422 48.772 83.5779 48.6897 83.7299 48.525C83.8819 48.3603 83.9579 48.0057 83.9579 47.461V43.243C83.9579 42.7237 83.9009 42.3817 83.7869 42.217C83.6729 42.0397 83.4132 41.951 83.0079 41.951C82.5266 41.951 82.1402 42.103 81.8489 42.407C81.5576 42.6983 81.3866 43.281 81.3359 44.155C81.3359 44.1803 81.2979 44.193 81.2219 44.193C81.1459 44.193 81.1079 44.1803 81.1079 44.155C81.1079 43.9777 81.1079 43.7117 81.1079 43.357C81.1079 42.9897 81.1016 42.616 81.0889 42.236C81.0889 41.856 81.0889 41.5457 81.0889 41.305C81.0889 41.2417 81.1269 41.21 81.2029 41.21C81.2789 41.21 81.3169 41.2417 81.3169 41.305C81.3169 41.4823 81.6082 41.59 82.1909 41.628C82.7736 41.666 83.5399 41.685 84.4899 41.685C85.1106 41.685 85.6552 41.6787 86.1239 41.666C86.6052 41.6533 86.9789 41.6217 87.2449 41.571C87.5109 41.5077 87.6439 41.419 87.6439 41.305C87.6439 41.2417 87.6819 41.21 87.7579 41.21C87.8339 41.21 87.8719 41.2417 87.8719 41.305C87.8719 41.5457 87.8719 41.856 87.8719 42.236C87.8719 42.616 87.8656 42.9897 87.8529 43.357C87.8529 43.7117 87.8529 43.9777 87.8529 44.155C87.8529 44.1803 87.8149 44.193 87.7389 44.193C87.6629 44.193 87.6249 44.1803 87.6249 44.155C87.5742 43.281 87.3906 42.6983 87.0739 42.407C86.7699 42.103 86.3836 41.951 85.9149 41.951C85.5222 41.951 85.2752 42.0397 85.1739 42.217C85.0726 42.3817 85.0219 42.7237 85.0219 43.243V47.461C85.0219 48.0057 85.0916 48.3603 85.2309 48.525C85.3702 48.6897 85.6996 48.772 86.2189 48.772C86.2569 48.772 86.2759 48.81 86.2759 48.886C86.2759 48.962 86.2569 49 86.2189 49C85.9782 49 85.7059 48.9937 85.4019 48.981C85.1106 48.9683 84.8066 48.962 84.4899 48.962C84.1859 48.962 83.8756 48.9683 83.5589 48.981C83.2549 48.9937 82.9762 49 82.7229 49ZM90.3961 49.19C90.3454 49.19 90.3011 49.1773 90.2631 49.152C90.2251 49.1393 90.2061 49.1203 90.2061 49.095V43.205C90.2061 42.6477 90.1301 42.293 89.9781 42.141C89.8388 41.9763 89.5158 41.894 89.0091 41.894C88.9838 41.894 88.9711 41.856 88.9711 41.78C88.9711 41.704 88.9838 41.666 89.0091 41.666C89.2498 41.666 89.5094 41.6723 89.7881 41.685C90.0668 41.6977 90.3771 41.704 90.7191 41.704C91.0864 41.704 91.4158 41.6977 91.7071 41.685C91.9984 41.6723 92.2581 41.666 92.4861 41.666C92.5241 41.666 92.5431 41.704 92.5431 41.78C92.5431 41.856 92.5241 41.894 92.4861 41.894C91.9794 41.894 91.6501 41.9763 91.4981 42.141C91.3461 42.293 91.2701 42.6477 91.2701 43.205V47.993L90.8711 48.126L96.1721 41.533C96.2228 41.495 96.2671 41.476 96.3051 41.476C96.4318 41.476 96.4951 41.5077 96.4951 41.571V47.461C96.4951 48.0057 96.5648 48.3603 96.7041 48.525C96.8561 48.6897 97.1854 48.772 97.6921 48.772C97.7174 48.772 97.7301 48.81 97.7301 48.886C97.7301 48.962 97.7174 49 97.6921 49C97.4514 49 97.1854 48.9937 96.8941 48.981C96.6028 48.9683 96.2988 48.962 95.9821 48.962C95.6528 48.962 95.3298 48.9683 95.0131 48.981C94.7091 48.9937 94.4431 49 94.2151 49C94.1771 49 94.1581 48.962 94.1581 48.886C94.1581 48.81 94.1771 48.772 94.2151 48.772C94.7218 48.772 95.0511 48.6897 95.2031 48.525C95.3551 48.3603 95.4311 48.0057 95.4311 47.461V42.654L95.8491 42.521L90.5291 49.133C90.5164 49.1457 90.4974 49.1583 90.4721 49.171C90.4594 49.1837 90.4341 49.19 90.3961 49.19ZM100.518 45.523V45.143H105.629V45.523H100.518ZM100.024 47.461V43.205C100.024 42.6477 99.9482 42.293 99.7962 42.141C99.6569 41.9763 99.3339 41.894 98.8272 41.894C98.7892 41.894 98.7702 41.856 98.7702 41.78C98.7702 41.704 98.7892 41.666 98.8272 41.666C99.0679 41.666 99.3402 41.6723 99.6442 41.685C99.9482 41.6977 100.259 41.704 100.575 41.704C100.879 41.704 101.183 41.6977 101.487 41.685C101.791 41.6723 102.064 41.666 102.304 41.666C102.33 41.666 102.342 41.704 102.342 41.78C102.342 41.856 102.33 41.894 102.304 41.894C101.772 41.894 101.437 41.9827 101.297 42.16C101.158 42.3373 101.088 42.6983 101.088 43.243V47.461C101.088 48.0057 101.158 48.3603 101.297 48.525C101.437 48.6897 101.772 48.772 102.304 48.772C102.33 48.772 102.342 48.81 102.342 48.886C102.342 48.962 102.33 49 102.304 49C102.051 49 101.772 48.9937 101.468 48.981C101.177 48.9683 100.879 48.962 100.575 48.962C100.259 48.962 99.9482 48.9683 99.6442 48.981C99.3402 48.9937 99.0615 49 98.8082 49C98.7702 49 98.7512 48.962 98.7512 48.886C98.7512 48.81 98.7702 48.772 98.8082 48.772C99.3275 48.772 99.6569 48.6897 99.7962 48.525C99.9482 48.3603 100.024 48.0057 100.024 47.461ZM105.135 47.461V43.205C105.135 42.6477 105.059 42.293 104.907 42.141C104.768 41.9763 104.445 41.894 103.938 41.894C103.9 41.894 103.881 41.856 103.881 41.78C103.881 41.704 103.9 41.666 103.938 41.666C104.179 41.666 104.451 41.6723 104.755 41.685C105.059 41.6977 105.37 41.704 105.686 41.704C105.99 41.704 106.294 41.6977 106.598 41.685C106.902 41.6723 107.175 41.666 107.415 41.666C107.441 41.666 107.453 41.704 107.453 41.78C107.453 41.856 107.441 41.894 107.415 41.894C106.883 41.894 106.548 41.9827 106.408 42.16C106.269 42.3373 106.199 42.6983 106.199 43.243V47.461C106.199 48.0057 106.269 48.3603 106.408 48.525C106.548 48.6897 106.883 48.772 107.415 48.772C107.441 48.772 107.453 48.81 107.453 48.886C107.453 48.962 107.441 49 107.415 49C107.162 49 106.883 48.9937 106.579 48.981C106.288 48.9683 105.99 48.962 105.686 48.962C105.37 48.962 105.053 48.9683 104.736 48.981C104.432 48.9937 104.16 49 103.919 49C103.881 49 103.862 48.962 103.862 48.886C103.862 48.81 103.881 48.772 103.919 48.772C104.439 48.772 104.768 48.6897 104.907 48.525C105.059 48.3603 105.135 48.0057 105.135 47.461ZM56.592 65.397C56.592 64.8143 56.7313 64.3013 57.01 63.858C57.2886 63.4147 57.6433 63.0093 58.074 62.642C58.5173 62.2747 58.986 61.9263 59.48 61.597C59.974 61.255 60.4363 60.9003 60.867 60.533C61.3103 60.1657 61.6713 59.773 61.95 59.355C62.2286 58.937 62.368 58.4557 62.368 57.911C62.368 57.341 62.216 56.904 61.912 56.6C61.608 56.2833 61.209 56.125 60.715 56.125C60.2336 56.125 59.86 56.2707 59.594 56.562C59.3406 56.8533 59.214 57.3157 59.214 57.949C59.214 58.6077 59.3533 59.279 59.632 59.963C59.9106 60.6343 60.297 61.2993 60.791 61.958C61.285 62.6167 61.8486 63.2563 62.482 63.877C63.128 64.4977 63.8056 65.074 64.515 65.606C65.313 66.2013 66.073 66.689 66.795 67.069C67.517 67.4363 68.125 67.6707 68.619 67.772C68.6823 67.7847 68.7076 67.829 68.695 67.905C68.6823 67.9683 68.657 68 68.619 68C68.3403 68 68.0173 68 67.65 68C67.2826 68 66.9216 68 66.567 68C66.4023 68 66.187 67.9493 65.921 67.848C65.655 67.7467 65.313 67.5693 64.895 67.316C64.4896 67.05 63.9893 66.67 63.394 66.176C62.7606 65.6693 62.14 65.1183 61.532 64.523C60.924 63.9277 60.3666 63.3133 59.86 62.68C59.366 62.034 58.967 61.407 58.663 60.799C58.4983 60.4317 58.3653 60.077 58.264 59.735C58.1626 59.393 58.112 59.0637 58.112 58.747C58.112 58.1897 58.245 57.683 58.511 57.227C58.777 56.771 59.1443 56.41 59.613 56.144C60.0816 55.8653 60.6326 55.726 61.266 55.726C61.608 55.726 61.95 55.783 62.292 55.897C62.634 55.9983 62.919 56.1883 63.147 56.467C63.375 56.733 63.489 57.113 63.489 57.607C63.489 58.1517 63.3496 58.6267 63.071 59.032C62.805 59.4247 62.4503 59.792 62.007 60.134C61.5763 60.4633 61.1203 60.7863 60.639 61.103C60.1576 61.407 59.7016 61.7363 59.271 62.091C58.8403 62.433 58.4856 62.8193 58.207 63.25C57.941 63.668 57.808 64.162 57.808 64.732C57.808 65.264 57.941 65.758 58.207 66.214C58.4856 66.6573 58.8656 67.012 59.347 67.278C59.8283 67.5313 60.373 67.658 60.981 67.658C61.5763 67.658 62.1273 67.5313 62.634 67.278C63.1406 67.012 63.5713 66.6637 63.926 66.233C64.2933 65.7897 64.572 65.2893 64.762 64.732C64.9646 64.162 65.066 63.573 65.066 62.965C65.066 62.5597 64.9836 62.2303 64.819 61.977C64.667 61.7237 64.2996 61.597 63.717 61.597C63.679 61.597 63.6536 61.559 63.641 61.483C63.641 61.407 63.6663 61.369 63.717 61.369L67.688 61.35C67.7386 61.35 67.764 61.388 67.764 61.464C67.764 61.54 67.7386 61.578 67.688 61.578C67.2446 61.578 66.9153 61.6223 66.7 61.711C66.4846 61.787 66.3326 61.9073 66.244 62.072C66.1553 62.2367 66.073 62.4457 65.997 62.699C65.883 63.1297 65.7246 63.5983 65.522 64.105C65.332 64.599 65.085 65.093 64.781 65.587C64.4896 66.0683 64.1286 66.5117 63.698 66.917C63.2673 67.3097 62.7543 67.6263 62.159 67.867C61.5763 68.1077 60.8986 68.228 60.126 68.228C59.3153 68.228 58.644 68.095 58.112 67.829C57.5926 67.5503 57.2063 67.1957 56.953 66.765C56.7123 66.3217 56.592 65.8657 56.592 65.397ZM37.013 87.228C36.6583 87.228 36.272 87.1963 35.854 87.133C35.4487 87.0823 35.056 87.0063 34.676 86.905C34.296 86.8037 33.973 86.6833 33.707 86.544C33.6057 86.4807 33.536 86.4237 33.498 86.373C33.4727 86.3223 33.4537 86.2337 33.441 86.107L33.213 83.979C33.213 83.941 33.2447 83.9157 33.308 83.903C33.384 83.8903 33.4283 83.903 33.441 83.941C33.6437 84.625 33.9603 85.1697 34.391 85.575C34.8217 85.9803 35.3157 86.278 35.873 86.468C36.443 86.658 37.0257 86.753 37.621 86.753C38.6217 86.753 39.445 86.5377 40.091 86.107C40.7497 85.6763 41.2373 85.062 41.554 84.264C41.8707 83.4533 42.029 82.5033 42.029 81.414C42.029 80.122 41.8263 79.0137 41.421 78.089C41.0283 77.1517 40.4837 76.4297 39.787 75.923C39.103 75.4163 38.324 75.163 37.45 75.163C36.6393 75.163 35.8793 75.3973 35.17 75.866C34.4733 76.3347 33.9097 77.0883 33.479 78.127C33.4663 78.1777 33.4283 78.1967 33.365 78.184C33.3017 78.1713 33.27 78.146 33.27 78.108L33.536 75.98C33.5613 75.828 33.5867 75.7267 33.612 75.676C33.6373 75.6253 33.707 75.5747 33.821 75.524C34.4797 75.3087 35.1193 75.1567 35.74 75.068C36.3733 74.9667 36.9623 74.916 37.507 74.916C38.5963 74.916 39.5147 75.0807 40.262 75.41C41.022 75.7393 41.63 76.1827 42.086 76.74C42.5547 77.2847 42.8903 77.9053 43.093 78.602C43.3083 79.286 43.416 79.9953 43.416 80.73C43.416 81.756 43.2387 82.6743 42.884 83.485C42.542 84.283 42.067 84.9607 41.459 85.518C40.8637 86.0753 40.1797 86.4997 39.407 86.791C38.647 87.0823 37.849 87.228 37.013 87.228ZM36.614 82.782C36.614 82.3007 36.614 81.9333 36.614 81.68C36.6267 81.414 36.633 81.1417 36.633 80.863C36.633 80.559 36.6267 80.2677 36.614 79.989C36.6013 79.6977 36.595 79.3873 36.595 79.058C36.595 79.02 36.633 79.001 36.709 79.001C36.785 79.001 36.823 79.02 36.823 79.058C36.8357 79.5647 37.0257 79.951 37.393 80.217C37.773 80.483 38.4063 80.616 39.293 80.616H42.77V81.015H39.236C38.3747 81.015 37.7603 81.1417 37.393 81.395C37.0257 81.6483 36.842 82.1107 36.842 82.782C36.842 82.82 36.804 82.839 36.728 82.839C36.652 82.839 36.614 82.82 36.614 82.782ZM46.7388 79.685C47.0681 79.685 47.4101 79.6787 47.7648 79.666C48.1321 79.6407 48.4931 79.628 48.8478 79.628C49.5824 79.628 50.1461 79.7483 50.5388 79.989C50.9441 80.2297 51.1468 80.5907 51.1468 81.072C51.1468 81.756 50.6338 82.44 49.6078 83.124L49.3608 83.01C49.5508 82.8327 49.6964 82.63 49.7978 82.402C49.8991 82.1613 49.9498 81.8637 49.9498 81.509C49.9498 80.939 49.8104 80.5273 49.5318 80.274C49.2658 80.0207 48.8731 79.894 48.3538 79.894C47.9231 79.894 47.6318 79.9763 47.4798 80.141C47.3278 80.293 47.2518 80.6603 47.2518 81.243V85.461C47.2518 85.9043 47.3468 86.2273 47.5368 86.43C47.7394 86.6327 48.1511 86.734 48.7718 86.734C49.4431 86.734 49.9308 86.5947 50.2348 86.316C50.5514 86.0373 50.7098 85.6383 50.7098 85.119C50.7098 84.5617 50.5451 84.112 50.2158 83.77C49.8864 83.4153 49.3354 83.238 48.5628 83.238H46.8148L46.7958 82.934H49.2278C51.0391 82.934 51.9448 83.5167 51.9448 84.682C51.9448 85.366 51.6788 85.9297 51.1468 86.373C50.6148 86.8163 49.9371 87.038 49.1138 87.038C48.8098 87.038 48.4234 87.0253 47.9548 87C47.4988 86.9747 47.0934 86.962 46.7388 86.962C46.4221 86.962 46.1118 86.9683 45.8078 86.981C45.5038 86.9937 45.2251 87 44.9718 87C44.9338 87 44.9148 86.962 44.9148 86.886C44.9148 86.81 44.9338 86.772 44.9718 86.772C45.4911 86.772 45.8204 86.6897 45.9598 86.525C46.1118 86.3603 46.1878 86.0057 46.1878 85.461V81.205C46.1878 80.6477 46.1118 80.293 45.9598 80.141C45.8204 79.9763 45.4974 79.894 44.9908 79.894C44.9528 79.894 44.9338 79.856 44.9338 79.78C44.9338 79.704 44.9528 79.666 44.9908 79.666C45.2314 79.666 45.5038 79.6723 45.8078 79.685C46.1118 79.685 46.4221 79.685 46.7388 79.685ZM56.8187 87.228C56.0587 87.228 55.419 87.057 54.8997 86.715C54.3804 86.3603 53.9877 85.9043 53.7217 85.347C53.4684 84.7897 53.3417 84.2007 53.3417 83.58C53.3417 82.8073 53.519 82.117 53.8737 81.509C54.2284 80.8883 54.7097 80.4007 55.3177 80.046C55.9384 79.6787 56.616 79.495 57.3507 79.495C58.0727 79.495 58.6174 79.685 58.9847 80.065C59.3647 80.445 59.5547 80.977 59.5547 81.661C59.5547 81.8257 59.5357 81.9523 59.4977 82.041C59.4724 82.117 59.4154 82.155 59.3267 82.155H58.2627C58.3134 81.3823 58.1994 80.8123 57.9207 80.445C57.642 80.065 57.243 79.875 56.7237 79.875C56.0524 79.875 55.5267 80.141 55.1467 80.673C54.7794 81.205 54.5957 81.9333 54.5957 82.858C54.5957 83.58 54.7097 84.2197 54.9377 84.777C55.1657 85.3343 55.5014 85.7713 55.9447 86.088C56.388 86.4047 56.9264 86.563 57.5597 86.563C57.9904 86.563 58.345 86.4997 58.6237 86.373C58.9024 86.2463 59.181 86.1007 59.4597 85.936C59.485 85.9107 59.5167 85.9297 59.5547 85.993C59.6054 86.0437 59.618 86.088 59.5927 86.126C59.1494 86.5187 58.6934 86.8037 58.2247 86.981C57.7687 87.1457 57.3 87.228 56.8187 87.228ZM54.2537 82.174L54.2347 81.927L58.5477 81.851V82.155L54.2537 82.174ZM60.4706 87C60.4199 87 60.3946 86.962 60.3946 86.886C60.3946 86.81 60.4199 86.772 60.4706 86.772C60.6099 86.772 60.7556 86.715 60.9076 86.601C61.0596 86.4743 61.2369 86.2463 61.4396 85.917C61.6422 85.5877 61.8829 85.1127 62.1616 84.492L64.3466 79.381C64.3719 79.3303 64.4099 79.305 64.4606 79.305C64.5239 79.305 64.5619 79.3303 64.5746 79.381L66.9306 84.397C67.2472 85.0557 67.5006 85.556 67.6906 85.898C67.8806 86.24 68.0642 86.4743 68.2416 86.601C68.4189 86.715 68.6469 86.772 68.9256 86.772C68.9889 86.772 69.0206 86.81 69.0206 86.886C69.0206 86.962 68.9889 87 68.9256 87C68.6342 87 68.3302 86.9873 68.0136 86.962C67.7096 86.9367 67.4119 86.924 67.1206 86.924C66.8799 86.924 66.6202 86.9367 66.3416 86.962C66.0629 86.9873 65.8096 87 65.5816 87C65.5309 87 65.5056 86.962 65.5056 86.886C65.5056 86.81 65.5309 86.772 65.5816 86.772C65.9109 86.772 66.1389 86.6643 66.2656 86.449C66.4049 86.2337 66.3542 85.8853 66.1136 85.404L64.0046 80.901L64.4416 80.312L62.5986 84.663C62.3579 85.233 62.2376 85.67 62.2376 85.974C62.2502 86.278 62.3452 86.487 62.5226 86.601C62.6999 86.715 62.9089 86.772 63.1496 86.772C63.2129 86.772 63.2446 86.81 63.2446 86.886C63.2446 86.962 63.2129 87 63.1496 87C62.9216 87 62.7189 86.9873 62.5416 86.962C62.3769 86.9367 62.1426 86.924 61.8386 86.924C61.6106 86.924 61.4269 86.9303 61.2876 86.943C61.1609 86.9557 61.0406 86.9683 60.9266 86.981C60.8126 86.9937 60.6606 87 60.4706 87ZM70.4962 87.19C70.4455 87.19 70.4012 87.1773 70.3632 87.152C70.3252 87.1393 70.3062 87.1203 70.3062 87.095V81.205C70.3062 80.6477 70.2302 80.293 70.0782 80.141C69.9389 79.9763 69.6159 79.894 69.1092 79.894C69.0839 79.894 69.0712 79.856 69.0712 79.78C69.0712 79.704 69.0839 79.666 69.1092 79.666C69.3499 79.666 69.6095 79.6723 69.8882 79.685C70.1669 79.6977 70.4772 79.704 70.8192 79.704C71.1865 79.704 71.5159 79.6977 71.8072 79.685C72.0985 79.6723 72.3582 79.666 72.5862 79.666C72.6242 79.666 72.6432 79.704 72.6432 79.78C72.6432 79.856 72.6242 79.894 72.5862 79.894C72.0795 79.894 71.7502 79.9763 71.5982 80.141C71.4462 80.293 71.3702 80.6477 71.3702 81.205V85.993L70.9712 86.126L76.2722 79.533C76.3229 79.495 76.3672 79.476 76.4052 79.476C76.5319 79.476 76.5952 79.5077 76.5952 79.571V85.461C76.5952 86.0057 76.6649 86.3603 76.8042 86.525C76.9562 86.6897 77.2855 86.772 77.7922 86.772C77.8175 86.772 77.8302 86.81 77.8302 86.886C77.8302 86.962 77.8175 87 77.7922 87C77.5515 87 77.2855 86.9937 76.9942 86.981C76.7029 86.9683 76.3989 86.962 76.0822 86.962C75.7529 86.962 75.4299 86.9683 75.1132 86.981C74.8092 86.9937 74.5432 87 74.3152 87C74.2772 87 74.2582 86.962 74.2582 86.886C74.2582 86.81 74.2772 86.772 74.3152 86.772C74.8219 86.772 75.1512 86.6897 75.3032 86.525C75.4552 86.3603 75.5312 86.0057 75.5312 85.461V80.654L75.9492 80.521L70.6292 87.133C70.6165 87.1457 70.5975 87.1583 70.5722 87.171C70.5595 87.1837 70.5342 87.19 70.4962 87.19ZM80.6183 83.523V83.143H85.7293V83.523H80.6183ZM80.1243 85.461V81.205C80.1243 80.6477 80.0483 80.293 79.8963 80.141C79.757 79.9763 79.434 79.894 78.9273 79.894C78.8893 79.894 78.8703 79.856 78.8703 79.78C78.8703 79.704 78.8893 79.666 78.9273 79.666C79.168 79.666 79.4403 79.6723 79.7443 79.685C80.0483 79.6977 80.3586 79.704 80.6753 79.704C80.9793 79.704 81.2833 79.6977 81.5873 79.685C81.8913 79.6723 82.1636 79.666 82.4043 79.666C82.4296 79.666 82.4423 79.704 82.4423 79.78C82.4423 79.856 82.4296 79.894 82.4043 79.894C81.8723 79.894 81.5366 79.9827 81.3973 80.16C81.258 80.3373 81.1883 80.6983 81.1883 81.243V85.461C81.1883 86.0057 81.258 86.3603 81.3973 86.525C81.5366 86.6897 81.8723 86.772 82.4043 86.772C82.4296 86.772 82.4423 86.81 82.4423 86.886C82.4423 86.962 82.4296 87 82.4043 87C82.151 87 81.8723 86.9937 81.5683 86.981C81.277 86.9683 80.9793 86.962 80.6753 86.962C80.3586 86.962 80.0483 86.9683 79.7443 86.981C79.4403 86.9937 79.1616 87 78.9083 87C78.8703 87 78.8513 86.962 78.8513 86.886C78.8513 86.81 78.8703 86.772 78.9083 86.772C79.4276 86.772 79.757 86.6897 79.8963 86.525C80.0483 86.3603 80.1243 86.0057 80.1243 85.461ZM85.2353 85.461V81.205C85.2353 80.6477 85.1593 80.293 85.0073 80.141C84.868 79.9763 84.545 79.894 84.0383 79.894C84.0003 79.894 83.9813 79.856 83.9813 79.78C83.9813 79.704 84.0003 79.666 84.0383 79.666C84.279 79.666 84.5513 79.6723 84.8553 79.685C85.1593 79.6977 85.4696 79.704 85.7863 79.704C86.0903 79.704 86.3943 79.6977 86.6983 79.685C87.0023 79.6723 87.2746 79.666 87.5153 79.666C87.5406 79.666 87.5533 79.704 87.5533 79.78C87.5533 79.856 87.5406 79.894 87.5153 79.894C86.9833 79.894 86.6476 79.9827 86.5083 80.16C86.369 80.3373 86.2993 80.6983 86.2993 81.243V85.461C86.2993 86.0057 86.369 86.3603 86.5083 86.525C86.6476 86.6897 86.9833 86.772 87.5153 86.772C87.5406 86.772 87.5533 86.81 87.5533 86.886C87.5533 86.962 87.5406 87 87.5153 87C87.262 87 86.9833 86.9937 86.6793 86.981C86.388 86.9683 86.0903 86.962 85.7863 86.962C85.4696 86.962 85.153 86.9683 84.8363 86.981C84.5323 86.9937 84.26 87 84.0193 87C83.9813 87 83.9623 86.962 83.9623 86.886C83.9623 86.81 83.9813 86.772 84.0193 86.772C84.5386 86.772 84.868 86.6897 85.0073 86.525C85.1593 86.3603 85.2353 86.0057 85.2353 85.461ZM94.0632 87.114C94.0125 87.1393 93.9618 87.152 93.9112 87.152C93.7465 87.152 93.5882 87.019 93.4362 86.753C93.2842 86.4743 93.2082 86.0753 93.2082 85.556V81.965C93.2082 81.1797 93.0942 80.6287 92.8662 80.312C92.6508 79.9953 92.3658 79.837 92.0112 79.837C91.6945 79.837 91.4348 79.9193 91.2322 80.084C91.0295 80.236 90.8775 80.4197 90.7762 80.635C90.6875 80.8503 90.6242 81.053 90.5862 81.243C90.5482 81.4203 90.4848 81.5977 90.3962 81.775C90.3075 81.9397 90.1302 82.022 89.8642 82.022C89.6488 82.022 89.4905 81.965 89.3892 81.851C89.2878 81.7243 89.2372 81.5913 89.2372 81.452C89.2372 81.2113 89.3512 80.977 89.5792 80.749C89.8198 80.521 90.1175 80.312 90.4722 80.122C90.8395 79.9193 91.2195 79.761 91.6122 79.647C92.0175 79.533 92.3785 79.476 92.6952 79.476C93.2145 79.476 93.6072 79.647 93.8732 79.989C94.1392 80.3183 94.2722 80.787 94.2722 81.395V84.948C94.2722 85.3913 94.3292 85.7143 94.4432 85.917C94.5572 86.1197 94.7408 86.221 94.9942 86.221C95.2222 86.221 95.5388 86.1387 95.9442 85.974C96.0075 85.9487 96.0518 85.974 96.0772 86.05C96.1025 86.1133 96.0835 86.1577 96.0202 86.183L94.0632 87.114ZM90.6432 87.133C90.1618 87.133 89.7945 87.0063 89.5412 86.753C89.2878 86.487 89.1612 86.1767 89.1612 85.822C89.1612 85.5687 89.2245 85.3407 89.3512 85.138C89.4905 84.9227 89.7058 84.7263 89.9972 84.549C90.2885 84.3717 90.6622 84.2007 91.1182 84.036L93.3982 83.181L93.4552 83.428L91.4412 84.207C91.2132 84.2957 91.0232 84.397 90.8712 84.511C90.7192 84.625 90.6052 84.7517 90.5292 84.891C90.4658 85.0303 90.4342 85.1823 90.4342 85.347C90.4342 85.6383 90.5292 85.8917 90.7192 86.107C90.9092 86.3223 91.1688 86.43 91.4982 86.43C91.6248 86.43 91.7578 86.411 91.8972 86.373C92.0365 86.335 92.2075 86.2527 92.4102 86.126L93.6072 85.404L93.6452 85.651L92.2392 86.563C91.9352 86.7657 91.6565 86.9113 91.4032 87C91.1625 87.0887 90.9092 87.133 90.6432 87.133Z" fill="black"/>
</svg>
