<svg width="218" height="133" viewBox="0 0 218 133" fill="none" xmlns="http://www.w3.org/2000/svg">
<path d="M14.7614 100.38C13.9848 100.891 13.3319 101.08 12.8029 100.946C12.619 100.925 12.4227 100.766 12.2138 100.469C12.0049 100.172 11.8996 99.9089 11.8979 99.6789L11.9302 99.4029L11.8953 99.3349L11.8927 98.9899L11.8241 99.0249C10.7333 100.503 9.91613 101.726 9.37253 102.694L8.96213 103.076C8.82493 103.146 8.71023 103.147 8.61783 103.079C8.45643 102.988 8.37533 102.885 8.37443 102.771L8.26953 102.565C8.47143 101.943 8.54693 101.3 8.49593 100.635L8.66163 99.7719C8.77033 98.9679 9.04343 98.6559 9.48093 98.8359C9.71143 98.9499 9.82793 99.1779 9.83053 99.5229L9.73483 100.522L11.4408 98.4429C11.7817 97.9809 11.9633 97.7159 11.9858 97.6469C12.3706 96.9319 12.68 96.8609 12.9139 97.4329C13.0538 97.7069 13.0792 98.0399 12.9904 98.4309C12.766 99.1209 12.7695 99.5809 13.0008 99.8079C13.2563 100.197 13.7612 100.17 14.5154 99.7279C15.2697 99.2859 16.3531 98.3599 17.7658 96.9479C18.3129 96.4389 19.1668 95.5139 20.3275 94.1739C21.2827 92.9959 21.8523 92.4179 22.0361 92.4389C22.4262 92.4129 22.3822 92.6659 21.9041 93.1979C21.8584 93.2209 21.8014 93.2789 21.7333 93.3709C21.3009 93.8799 20.9937 94.2379 20.8116 94.4459L20.5049 94.8609L19.925 95.5889L19.1742 96.4899C17.8988 97.8309 16.8731 98.8149 16.0973 99.4409L14.7614 100.38ZM29.3014 92.5399C28.5194 92.3619 28.1591 91.7679 28.2203 90.7569C28.2625 90.2749 28.2832 89.9759 28.2824 89.8619C28.146 90.0459 27.8509 90.4849 27.397 91.1769C26.3555 93.0899 25.1702 94.2129 23.8412 94.5439C23.1534 94.6639 22.6584 94.4839 22.3563 94.0049C21.7064 93.0679 21.5989 92.5179 22.0339 92.3539C22.1253 92.3069 22.2746 92.3179 22.4818 92.3849C22.7579 92.4749 22.9085 92.6569 22.9336 92.9329C22.9569 92.9779 22.9461 93.0699 22.9013 93.2079C22.8564 93.3459 22.8456 93.4379 22.8689 93.4839C23.0553 93.8499 23.2633 94.0319 23.4929 94.0299C24.343 94.1159 25.5731 92.8549 27.1833 90.2489C27.5691 89.6489 27.8638 89.1529 28.0674 88.7609C28.2935 88.2999 28.4289 88.0009 28.4738 87.8629C28.5187 87.7249 28.5752 87.6099 28.6434 87.5169C28.7573 87.4019 28.8941 87.2739 29.0537 87.1349C29.3048 86.9499 29.568 86.8439 29.8433 86.8189C30.0747 87.0469 30.1454 87.2989 30.0557 87.5749C29.6234 88.0839 29.3309 88.8659 29.1782 89.9239C29.0022 90.9349 29.1334 91.5879 29.5719 91.8839C29.9413 92.1559 30.7632 91.5649 32.0378 90.1089C33.2891 88.6069 34.3112 87.1639 35.1042 85.7809L35.2065 85.6419L35.4123 85.5369L35.5159 85.5709C35.6307 85.5699 35.7114 85.6149 35.758 85.7069C35.7813 85.7529 35.7588 85.8219 35.6907 85.9139L32.6915 90.0349C31.3514 91.9269 30.2214 92.7629 29.3014 92.5399ZM38.245 87.9829C38.0163 88.0989 37.7751 88.0779 37.5213 87.9199C37.2219 87.7839 37.0479 87.5559 36.9996 87.2349C36.8831 87.0059 36.8352 86.7419 36.8558 86.4439L36.817 85.8589C36.7937 85.8129 36.7138 85.8819 36.5775 86.0669C36.4869 86.2289 36.3738 86.4589 36.2384 86.7579C36.0796 87.0119 35.9437 87.2539 35.8307 87.4849C35.243 88.7059 34.6748 89.4559 34.1259 89.7359C33.7143 89.9459 33.4385 89.9129 33.2987 89.6389C33.2288 89.5019 33.284 89.2139 33.4643 88.7769C33.9381 87.6709 34.6405 86.4489 35.5716 85.1109C36.003 84.4869 36.2757 84.1179 36.3896 84.0019C36.5493 83.8629 36.6869 83.8509 36.8026 83.9649C36.8492 84.0559 36.9868 84.0439 37.2155 83.9269C37.3985 83.8339 37.5361 83.8209 37.6285 83.8899C37.7433 83.8889 37.8015 84.0029 37.8033 84.2329C37.7817 84.4169 37.7714 84.5659 37.7722 84.6809C37.7731 84.7949 37.7399 84.9559 37.6726 85.1629C37.4276 86.1529 37.5476 86.8399 38.0326 87.2269C38.0792 87.3179 38.1712 87.3289 38.3084 87.2589C38.4913 87.1659 38.6398 87.0619 38.7537 86.9459L38.9931 86.7379C39.7232 86.1349 41.3166 84.3439 43.7734 81.3639L43.8757 81.2249L44.0815 81.1199L44.1851 81.1539C44.2541 81.1759 44.312 81.2329 44.3586 81.3249C44.3819 81.3699 44.3823 81.4279 44.3599 81.4969L41.3581 85.2729L39.2741 87.4589L39.0683 87.5629C38.8172 87.7489 38.5427 87.8889 38.245 87.9829ZM33.9485 89.0489L34.2903 88.7019C35.0401 87.6859 35.4712 87.0049 35.5833 86.6599C35.6731 86.3839 35.8884 86.0149 36.2292 85.5529C36.457 85.3219 36.5477 85.1609 36.501 85.0689C36.4311 84.9319 36.2033 85.1629 35.8176 85.7629C35.0444 86.7329 34.512 87.6669 34.2203 88.5639L33.9485 89.0489ZM56.461 74.8989C56.8511 74.8729 56.8071 75.1259 56.329 75.6579C56.2833 75.6809 56.2263 75.7389 56.1581 75.8309C55.7258 76.3389 55.4186 76.6979 55.2365 76.9059L54.9298 77.3209L54.3499 78.0489L53.5991 78.9499C52.3236 80.2909 51.298 81.2739 50.5222 81.8999L49.1863 82.8399C48.4096 83.3509 47.7568 83.5399 47.2277 83.4059C46.8601 83.3629 46.5705 83.0209 46.359 82.3789L46.3215 81.9669L46.3538 81.6909C45.4848 82.1339 44.9144 82.5969 44.6425 83.0809L44.3113 84.8059L44.2776 84.9089L43.8673 85.2909C43.7301 85.3609 43.6153 85.3619 43.5229 85.2939C43.3615 85.2029 43.3033 85.0889 43.3482 84.9509L43.2433 84.7449C43.4452 84.1229 43.5206 83.4799 43.4697 82.8149L43.7686 81.3659C43.8773 80.5619 44.1276 80.2609 44.5194 80.4649C44.7498 80.5779 44.8663 80.8069 44.8689 81.1509L44.737 81.9099L46.3473 80.8299L46.4159 80.7949L46.7174 79.6909C47.2412 79.1359 47.6071 78.9489 47.8152 79.1309C47.9308 79.2449 47.8868 79.4979 47.6832 79.8899C47.1413 81.0879 47.0555 81.8809 47.4257 82.2679C47.7269 82.6329 48.2318 82.6059 48.9403 82.1879C49.6255 81.7229 50.709 80.7969 52.1907 79.4079C52.7378 78.8989 53.5917 77.9739 54.7524 76.6339C55.7767 75.4779 56.3462 74.8999 56.461 74.8989ZM72.8126 96.1229C72.5158 96.3319 72.2866 96.3909 72.1252 96.2999C71.9414 96.2789 71.7908 96.0959 71.6734 95.7529L71.4973 95.2369C71.5862 94.8459 71.5719 94.4789 71.4545 94.1359C71.4994 93.9979 71.5434 93.7449 71.5865 93.3769L71.6551 93.3419C71.7 93.2039 71.6991 93.0889 71.6525 92.9979C71.5817 92.7459 71.7927 91.8029 72.2853 90.1689C72.7547 88.4899 73.2042 87.2239 73.6339 86.3709C74.1758 85.1729 74.7074 84.1239 75.2286 83.2249L75.9431 82.0829C76.3279 81.3689 76.6114 80.9069 76.7935 80.6989C77.0213 80.4679 77.1119 80.3069 77.0653 80.2149C77.0877 80.1459 77.1218 80.0999 77.1676 80.0769C77.3048 80.0069 77.5093 79.7299 77.7811 79.2459C80.1447 76.0819 81.3839 74.4999 81.4986 74.4999L81.6695 74.3259C81.7834 74.2099 81.8516 74.1179 81.874 74.0489C81.9413 73.8419 82.1575 73.5879 82.5225 73.2869C83.024 72.8009 83.396 71.8909 83.638 70.5575C83.726 70.0517 83.971 69.0053 84.372 67.4182C84.727 65.8544 85.027 64.5205 85.271 63.4167C85.492 62.2672 85.569 61.7386 85.5 61.8309L84.203 63.356C84.135 63.4483 83.941 63.5761 83.621 63.7392C83.255 63.9256 83.003 63.9964 82.8649 63.9515C82.7268 63.9067 82.6112 63.7928 82.5179 63.6098C82.4014 63.3811 82.3885 63.1861 82.4791 63.0247L82.6137 62.6104C82.6594 62.5871 82.728 62.5522 82.8195 62.5056C82.8419 62.4365 82.8643 62.3675 82.8868 62.2984L83.26 61.5036C83.758 60.6733 84.236 60.0269 84.691 59.5643C85.534 58.7314 86.119 58.6351 86.445 59.2754C86.492 59.3669 86.561 59.4467 86.654 59.5149L86.724 59.6521C86.77 59.7436 86.761 60.0077 86.695 60.4444L86.535 61.9952L86.237 63.616C86.17 63.8231 85.98 64.5822 85.669 65.8931C85.334 67.1583 85.045 68.3429 84.801 69.4467C84.533 70.5048 84.434 70.9876 84.502 70.8953L85.595 69.8194C86.621 68.7786 88.514 67.1801 91.276 65.0241L94.768 62.3804L96.241 61.3706C97.338 60.6965 98.035 60.3124 98.333 60.2183C98.792 60.2148 98.966 60.3857 98.853 60.7309L98.649 61.0079L98.171 61.597C97.898 61.8516 97.658 62.0026 97.452 62.0501C97.039 62.1451 96.923 62.0312 97.105 61.7084C97.126 61.5246 97.045 61.4793 96.862 61.5725C96.771 61.6191 96.577 61.7468 96.28 61.9557C95.685 62.2587 95.228 62.5491 94.909 62.827L89.158 67.313C89.021 67.3829 88.895 67.4757 88.781 67.5913C88.69 67.6379 88.61 67.7074 88.542 67.7998L88.404 67.8697C88.36 68.0078 88.223 68.1351 87.994 68.2516C87.765 68.3681 87.629 68.4954 87.584 68.6335C87.447 68.8182 87.345 68.8993 87.276 68.8769L87.07 68.9818C87.047 69.0508 86.899 69.2126 86.626 69.4673C85.099 70.994 84.292 72.0099 84.204 72.5159C83.89 73.4829 83.7 74.1269 83.633 74.4489C83.078 76.8639 82.2356 79.3379 81.1069 81.8719L79.2108 86.1219L77.4479 89.7859L76.4292 91.6869L75.9529 92.4489L75.272 93.4869C74.3634 94.7559 73.5436 95.6349 72.8126 96.1229ZM83.443 63.0518C83.809 62.8654 84.311 62.3794 84.948 61.5941C85.561 60.7629 85.821 60.2559 85.728 60.0729C85.705 60.0272 85.625 60.0393 85.487 60.1092C85.327 60.1334 85.167 60.2149 85.007 60.3539C84.847 60.4928 84.699 60.6547 84.563 60.8394C83.949 61.5557 83.541 62.2246 83.339 62.846C83.271 63.0531 83.306 63.1217 83.443 63.0518ZM72.3958 95.6439L73.2164 94.8799C73.9905 94.0249 74.6606 93.0779 75.2266 92.0409C75.5209 91.4879 75.7137 91.1879 75.8052 91.1409C75.851 91.1179 75.8963 91.0369 75.9411 90.8989C75.8945 90.8079 75.9169 90.7389 76.0084 90.6919C76.0542 90.6689 76.3488 90.1729 76.8925 89.2039C77.4361 88.2359 77.764 87.5789 77.8762 87.2339L78.2153 86.5429C78.3965 86.2199 78.5544 85.8519 78.689 85.4369L79.7697 82.6399C81.7276 77.4359 82.6249 74.6749 82.4618 74.3549C82.4842 74.2849 82.5183 74.2389 82.564 74.2159C82.5865 74.1469 82.586 74.0899 82.5627 74.0439C82.5161 73.9519 82.2878 74.1259 81.8779 74.5659L81.1608 75.3629C80.8424 75.7559 80.6948 75.9749 80.7181 76.0209L80.4787 76.2289C80.3415 76.2989 80.2616 76.3689 80.2392 76.4379C80.2625 76.4829 79.9104 76.9799 79.183 77.9259C78.4107 79.0109 77.9339 79.7149 77.7527 80.0379L77.31 80.6949C76.9898 80.8589 76.1511 82.2649 74.7937 84.9159C74.0249 86.4599 73.4498 87.8189 73.0684 88.9919C72.4852 90.7879 72.1543 92.5689 72.0759 94.3379C72.1286 95.2329 72.2352 95.6679 72.3958 95.6439ZM104.165 50.5926C104.555 50.5667 104.511 50.8196 104.033 51.3512C103.987 51.3745 103.93 51.4324 103.862 51.5247C103.429 52.0331 103.122 52.3912 102.94 52.5992L102.633 53.0148L102.054 53.7424L101.303 54.6434C100.027 55.9846 99.002 56.9681 98.226 57.5939L96.89 58.5338C96.113 59.0448 95.46 59.2334 94.931 59.0996C94.564 59.0565 94.274 58.7144 94.063 58.0731L94.025 57.6602L94.057 57.3845C93.188 57.8272 92.618 58.2907 92.346 58.7749L92.015 60.4992L91.981 60.6028L91.571 60.9847C91.434 61.0546 91.319 61.0555 91.227 60.9873C91.065 60.8967 91.007 60.7824 91.052 60.6443L90.947 60.4385C91.149 59.8171 91.224 59.1737 91.173 58.5083L91.472 57.0597C91.581 56.2554 91.831 55.955 92.223 56.1587C92.453 56.2717 92.57 56.5004 92.573 56.8447L92.441 57.6033L94.051 56.5236L94.12 56.4886L94.421 55.3844C94.945 54.8294 95.311 54.643 95.519 54.8251C95.634 54.939 95.59 55.1918 95.387 55.5837C94.845 56.7816 94.759 57.5743 95.129 57.9617C95.431 58.3268 95.935 58.3 96.644 57.8814C97.329 57.417 98.413 56.4905 99.894 55.1018C100.441 54.5926 101.295 53.6678 102.456 52.3274C103.48 51.1718 104.05 50.5935 104.165 50.5926ZM117.59 43.7519C117.705 43.751 117.786 43.7964 117.832 43.8878C117.856 43.9336 117.833 44.0026 117.765 44.095L114.766 48.2157C113.426 50.1084 112.296 50.9434 111.376 50.7208C110.594 50.5431 110.233 49.9489 110.295 48.9383C110.337 48.4559 110.358 48.1573 110.357 48.0425C110.22 48.2272 109.925 48.6656 109.471 49.3578C108.43 51.2712 107.245 52.3937 105.916 52.7251C105.228 52.8452 104.733 52.6653 104.431 52.1854C103.781 51.2491 103.673 50.6989 104.108 50.5349C104.2 50.4883 104.349 50.4987 104.556 50.566C104.832 50.6557 104.983 50.8382 105.008 51.1135C105.031 51.1593 105.021 51.2512 104.976 51.3893C104.931 51.5273 104.92 51.6193 104.943 51.665C105.13 52.0309 105.338 52.213 105.567 52.2112C106.303 52.2975 107.374 51.2907 108.781 49.1909C107.799 49.8641 107.227 50.0406 107.064 49.7205C106.97 49.5375 107.367 48.8458 108.253 47.6452C108.753 46.9298 109.288 46.3403 109.858 45.8768C110.474 45.39 110.898 45.2031 111.128 45.3162C111.379 45.1306 111.642 45.0253 111.918 45.0003C112.149 45.2281 112.22 45.4801 112.13 45.7562C111.698 46.2646 111.405 47.0474 111.253 48.1046C111.077 49.1161 111.208 49.7694 111.646 50.0645C112.016 50.3372 112.838 49.7455 114.112 48.2895C115.363 46.7878 116.386 45.3451 117.179 43.9617L117.281 43.8231L117.487 43.7183L117.59 43.7519ZM108.055 48.7832C108.17 48.7823 108.25 48.7702 108.296 48.7469C108.318 48.6778 108.432 48.5622 108.638 48.3999C108.889 48.2144 109.06 48.0983 109.152 48.0517C109.517 47.7504 109.903 47.2654 110.311 46.5965C110.38 46.5042 110.447 46.3544 110.515 46.1473L110.103 46.3571C109.943 46.496 109.761 46.704 109.557 46.9811C108.578 48.1134 108.078 48.7141 108.055 48.7832ZM150.636 31.1486C149.86 31.6596 149.207 31.8482 148.678 31.7144C148.494 31.6929 148.298 31.5337 148.089 31.2368C147.88 30.9399 147.775 30.6767 147.773 30.4472L147.805 30.1714L147.77 30.1028L147.768 29.7585L147.699 29.7934C146.608 31.271 145.791 32.494 145.247 33.4623L144.837 33.8442C144.7 33.9141 144.585 33.915 144.493 33.8468C144.331 33.7562 144.25 33.6535 144.249 33.5388L144.145 33.3329C144.346 32.7115 144.422 32.0682 144.371 31.4028L144.537 30.5406C144.645 29.7363 144.918 29.4243 145.356 29.6046C145.586 29.7176 145.703 29.9463 145.706 30.2907L145.61 31.2901L147.316 29.2109C147.657 28.7492 147.838 28.4838 147.861 28.4147C148.246 27.7001 148.555 27.6289 148.789 28.2011C148.929 28.4755 148.954 28.8082 148.865 29.1992C148.641 29.8896 148.645 30.3487 148.876 30.5765C149.131 30.9649 149.636 30.9381 150.39 30.4962C151.145 30.0542 152.228 29.1277 153.641 27.7166C154.188 27.2074 155.042 26.2826 156.202 24.9422C157.158 23.7641 157.727 23.1859 157.911 23.2074C158.301 23.1815 158.257 23.4344 157.779 23.966C157.733 23.9893 157.676 24.0472 157.608 24.1395C157.176 24.6479 156.869 25.006 156.687 25.214L156.38 25.6296L155.8 26.3572L155.049 27.2582C153.774 28.5994 152.748 29.5829 151.972 30.2087L150.636 31.1486ZM165.176 23.308C164.394 23.1303 164.034 22.5362 164.095 21.5256C164.138 21.0431 164.158 20.7445 164.157 20.6297C164.021 20.8144 163.726 21.2529 163.272 21.945C162.23 23.8584 161.045 24.9809 159.716 25.3124C159.028 25.4324 158.533 25.2525 158.231 24.7727C157.581 23.8363 157.474 23.2862 157.909 23.1222C158 23.0755 158.15 23.0859 158.357 23.1532C158.633 23.2429 158.784 23.4254 158.809 23.7007C158.832 23.7465 158.821 23.8384 158.776 23.9765C158.731 24.1146 158.721 24.2065 158.744 24.2522C158.93 24.6181 159.138 24.8002 159.368 24.7985C160.218 24.8838 161.448 23.6233 163.058 21.0169C163.444 20.4171 163.739 19.9212 163.942 19.5294C164.168 19.0685 164.304 18.7691 164.349 18.631C164.394 18.4929 164.45 18.3777 164.518 18.2853C164.632 18.1697 164.769 18.0424 164.929 17.9034C165.18 17.7178 165.443 17.6125 165.718 17.5875C165.95 17.8153 166.02 18.0673 165.931 18.3435C165.498 18.8518 165.206 19.6346 165.053 20.6918C164.877 21.7033 165.008 22.3566 165.447 22.6517C165.816 22.9244 166.638 22.3327 167.913 20.8767C169.164 19.375 170.186 17.9324 170.979 16.5489L171.082 16.4104L171.287 16.3055L171.391 16.3391C171.506 16.3383 171.586 16.3836 171.633 16.475C171.656 16.5208 171.634 16.5898 171.566 16.6822L168.567 20.8029C167.226 22.6956 166.096 23.5306 165.176 23.308ZM174.12 18.751C173.891 18.8676 173.65 18.8464 173.396 18.6877C173.097 18.5522 172.923 18.3239 172.875 18.0029C172.758 17.7742 172.71 17.5105 172.731 17.2119L172.692 16.6268C172.669 16.5811 172.589 16.6506 172.452 16.8353C172.362 16.9966 172.249 17.2271 172.113 17.5266C171.955 17.7803 171.819 18.0224 171.706 18.2528C171.118 19.474 170.55 20.2245 170.001 20.5041C169.589 20.7139 169.314 20.6815 169.174 20.4071C169.104 20.2699 169.159 19.9825 169.339 19.5449C169.813 18.4394 170.515 17.2173 171.447 15.8787C171.878 15.2555 172.151 14.8861 172.265 14.7705C172.424 14.6315 172.562 14.619 172.678 14.7329C172.724 14.8244 172.862 14.8119 173.091 14.6953C173.274 14.6021 173.411 14.5896 173.503 14.6578C173.618 14.6569 173.677 14.7713 173.678 15.0008C173.657 15.1846 173.646 15.3339 173.647 15.4487C173.648 15.5635 173.615 15.7245 173.548 15.9316C173.303 16.9206 173.423 17.6084 173.908 17.995C173.954 18.0865 174.046 18.0973 174.183 18.0274C174.366 17.9342 174.515 17.8297 174.629 17.7141L174.868 17.5056C175.598 16.9032 177.192 15.1119 179.648 12.1317L179.751 11.9932L179.957 11.8883L180.06 11.922C180.129 11.9444 180.187 12.0014 180.234 12.0928C180.257 12.1386 180.257 12.196 180.235 12.265L177.233 16.0414L175.149 18.2267L174.943 18.3315C174.692 18.5171 174.418 18.6569 174.12 18.751ZM169.824 19.8167L170.165 19.4698C170.915 18.454 171.346 17.7734 171.458 17.4282C171.548 17.152 171.763 16.7831 172.104 16.3213C172.332 16.09 172.423 15.9287 172.376 15.8372C172.306 15.7 172.078 15.9313 171.693 16.5311C170.919 17.5012 170.387 18.435 170.095 19.3326L169.824 19.8167ZM192.336 5.66709C192.726 5.64119 192.682 5.89399 192.204 6.42569C192.158 6.44899 192.101 6.50679 192.033 6.59919C191.601 7.10749 191.294 7.46569 191.112 7.67369L190.805 8.08919L190.225 8.81679L189.474 9.71789C188.199 11.0591 187.173 12.0426 186.397 12.6683L185.061 13.6082C184.285 14.1192 183.632 14.3078 183.103 14.1741C182.735 14.131 182.446 13.7888 182.234 13.1476L182.196 12.7346L182.229 12.4589C181.36 12.9017 180.789 13.3652 180.518 13.8494L180.186 15.5737L180.153 15.6773L179.742 16.0592C179.605 16.1291 179.49 16.13 179.398 16.0618C179.237 15.9712 179.178 15.8568 179.223 15.7187L179.118 15.5129C179.32 14.8915 179.396 14.2481 179.345 13.5828L179.644 12.1342C179.752 11.3298 180.003 11.0295 180.394 11.2331C180.625 11.3462 180.741 11.5748 180.744 11.9192L180.612 12.6778L182.222 11.598L182.291 11.5631L182.592 10.4588C183.116 9.90389 183.482 9.71739 183.69 9.89949C183.806 10.0134 183.762 10.2663 183.558 10.6581C183.016 11.856 182.93 12.6487 183.301 13.0362C183.602 13.4012 184.107 13.3744 184.815 12.9558C185.501 12.4915 186.584 11.5649 188.066 10.1762C188.613 9.66699 189.467 8.74219 190.627 7.40189C191.652 6.24619 192.221 5.66789 192.336 5.66709Z" fill="#7C1111"/>
<path d="M11.4502 67.7595C10.6735 68.2704 10.0206 68.4591 9.49155 68.3253C9.30775 68.3038 9.11135 68.1446 8.90245 67.8477C8.69365 67.5508 8.58835 67.2876 8.58655 67.0581L8.61895 66.7823L8.58395 66.7137L8.58135 66.3694L8.51275 66.4043C7.42195 67.8819 6.60475 69.1048 6.06115 70.0732L5.65085 70.4551C5.51365 70.525 5.39885 70.5259 5.30645 70.4577C5.14505 70.3671 5.06395 70.2644 5.06305 70.1496L4.95825 69.9438C5.16015 69.3224 5.23555 68.679 5.18465 68.0137L5.35025 67.1515C5.45895 66.3472 5.73205 66.0352 6.16965 66.2155C6.40005 66.3285 6.51655 66.5572 6.51915 66.9016L6.42345 67.901L8.12955 65.8218C8.47035 65.3601 8.65205 65.0947 8.67445 65.0256C9.05935 64.311 9.36865 64.2398 9.60265 64.812C9.74245 65.0864 9.76795 65.4191 9.67905 65.81C9.45475 66.5005 9.45825 66.9596 9.68955 67.1874C9.94505 67.5758 10.4499 67.549 11.2042 67.1071C11.9584 66.6651 13.0419 65.7386 14.4545 64.3275C15.0016 63.8182 15.8555 62.8935 17.0162 61.5531C17.9715 60.375 18.541 59.7967 18.7248 59.8183C19.1149 59.7924 19.0709 60.0453 18.5929 60.5769C18.5471 60.6002 18.4902 60.658 18.422 60.7504C17.9897 61.2587 17.6825 61.6169 17.5004 61.8249L17.1936 62.2405L16.6137 62.9681L15.8629 63.8691C14.5875 65.2103 13.5619 66.1938 12.7861 66.8196L11.4502 67.7595ZM25.9901 59.9189C25.2082 59.7412 24.8478 59.147 24.909 58.1364C24.9513 57.654 24.972 57.3554 24.9711 57.2406C24.8348 57.4253 24.5396 57.8638 24.0857 58.5559C23.0442 60.4693 21.8589 61.5918 20.5299 61.9233C19.8421 62.0433 19.3471 61.8634 19.045 61.3835C18.3951 60.4472 18.2876 59.8971 18.7226 59.733C18.8141 59.6864 18.9634 59.6968 19.1705 59.7641C19.4467 59.8538 19.5973 60.0363 19.6223 60.3116C19.6456 60.3574 19.6349 60.4493 19.59 60.5874C19.5451 60.7255 19.5343 60.8174 19.5576 60.8631C19.7441 61.229 19.9521 61.4111 20.1816 61.4094C21.0317 61.4947 22.2619 60.2342 23.8721 57.6278C24.2578 57.0279 24.5525 56.5321 24.7561 56.1403C24.9822 55.6794 25.1177 55.3799 25.1625 55.2419C25.2074 55.1038 25.2639 54.9886 25.3321 54.8962C25.446 54.7806 25.5828 54.6532 25.7424 54.5143C25.9936 54.3287 26.2568 54.2234 26.5321 54.1984C26.7634 54.4262 26.8342 54.6782 26.7444 54.9544C26.3121 55.4627 26.0196 56.2455 25.8669 57.3027C25.6909 58.3142 25.8222 58.9675 26.2606 59.2626C26.63 59.5353 27.452 58.9436 28.7265 57.4876C29.9778 55.9859 31 54.5432 31.793 53.1598L31.8952 53.0212L32.101 52.9164L32.2046 52.95C32.3194 52.9492 32.4001 52.9945 32.4467 53.0859C32.47 53.1317 32.4476 53.2007 32.3794 53.2931L29.3803 57.4138C28.0401 59.3065 26.9101 60.1415 25.9901 59.9189ZM34.9337 55.3619C34.705 55.4784 34.4638 55.4573 34.2101 55.2985C33.9106 55.1631 33.7367 54.9348 33.6883 54.6138C33.5718 54.3851 33.5239 54.1214 33.5446 53.8228L33.5057 53.2377C33.4824 53.192 33.4026 53.2614 33.2662 53.4461C33.1756 53.6075 33.0626 53.838 32.9271 54.1374C32.7683 54.3912 32.6324 54.6333 32.5194 54.8637C31.9318 56.0849 31.3635 56.8354 30.8147 57.115C30.403 57.3248 30.1273 57.2924 29.9874 57.018C29.9175 56.8808 29.9727 56.5934 30.1531 56.1558C30.6268 55.0503 31.3292 53.8282 32.2603 52.4896C32.6918 51.8664 32.9645 51.497 33.0784 51.3814C33.238 51.2424 33.3757 51.2299 33.4913 51.3438C33.5379 51.4353 33.6756 51.4228 33.9043 51.3062C34.0872 51.213 34.2249 51.2005 34.3172 51.2687C34.432 51.2678 34.4903 51.3821 34.492 51.6117C34.4704 51.7955 34.4601 51.9448 34.461 52.0596C34.4618 52.1744 34.4286 52.3353 34.3613 52.5425C34.1163 53.5315 34.2363 54.2193 34.7214 54.6059C34.768 54.6974 34.8599 54.7082 34.9971 54.6383C35.18 54.5451 35.3285 54.4406 35.4424 54.325L35.6819 54.1165C36.4119 53.5141 38.0054 51.7228 40.4622 48.7426L40.5644 48.6041L40.7701 48.4992L40.8737 48.5328C40.9428 48.5553 41.0006 48.6122 41.0472 48.7037C41.0705 48.7495 41.071 48.8068 41.0486 48.8759L38.0469 52.6522L35.9628 54.8376L35.757 54.9424C35.5059 55.128 35.2315 55.2678 34.9337 55.3619ZM30.6373 56.4276L30.979 56.0807C31.7289 55.0648 32.1599 54.3843 32.2721 54.0391C32.3618 53.7629 32.5771 53.394 32.918 52.9322C33.1458 52.7009 33.2364 52.5395 33.1898 52.4481C33.1199 52.3108 32.892 52.5422 32.5063 53.142C31.7331 54.1121 31.2007 55.0459 30.9091 55.9435L30.6373 56.4276ZM53.1497 42.278C53.5398 42.252 53.4958 42.5049 53.0177 43.0366C52.972 43.0599 52.9151 43.1177 52.8469 43.21C52.4145 43.7184 52.1073 44.0766 51.9253 44.2846L51.6185 44.7001L51.0386 45.4277L50.2878 46.3287C49.0124 47.67 47.9868 48.6535 47.2109 49.2792L45.8751 50.2191C45.0984 50.7301 44.4455 50.9187 43.9165 50.785C43.5488 50.7419 43.2593 50.3997 43.0478 49.7585L43.0102 49.3455L43.0424 49.0698C42.1734 49.5126 41.6031 49.9761 41.3313 50.4602L41 52.1846L40.9664 52.2881L40.556 52.6701C40.4188 52.74 40.304 52.7408 40.2117 52.6727C40.0503 52.5821 39.9919 52.4677 40.0368 52.3296L39.932 52.1238C40.1339 51.5024 40.2094 50.859 40.1584 50.1937L40.4573 48.7451C40.566 47.9407 40.8163 47.6404 41.2081 47.844C41.4385 47.957 41.5551 48.1857 41.5577 48.5301L41.4257 49.2887L43.0359 48.2089L43.1046 48.174L43.4062 47.0697C43.93 46.5148 44.2959 46.3283 44.5039 46.5104C44.6195 46.6243 44.5754 46.8772 44.3718 47.269C43.8299 48.4669 43.7441 49.2596 44.1144 49.6471C44.4156 50.0121 44.9205 49.9853 45.629 49.5667C46.3143 49.1023 47.3977 48.1758 48.8794 46.7871C49.4265 46.2779 50.2804 45.3531 51.4411 44.0127C52.4654 42.8571 53.035 42.2788 53.1497 42.278ZM69.5014 63.5017C69.2045 63.7106 68.9754 63.7697 68.814 63.6791C68.6302 63.6576 68.4795 63.475 68.3621 63.1316L68.1861 62.6164C68.2749 62.2254 68.2606 61.8582 68.1433 61.5147C68.1881 61.3766 68.2321 61.1238 68.2752 60.7561L68.3438 60.7212C68.3887 60.5831 68.3878 60.4683 68.3412 60.3768C68.2704 60.1248 68.4814 59.182 68.9741 57.5482C69.4434 55.8688 69.893 54.6027 70.3227 53.75C70.8646 52.5521 71.3961 51.5035 71.9173 50.6042L72.6318 49.4623C73.0167 48.7477 73.3001 48.2864 73.4822 48.0784C73.71 47.8471 73.8006 47.6857 73.754 47.5942C73.7765 47.5252 73.8105 47.479 73.8563 47.4557C73.9935 47.3858 74.198 47.1088 74.4698 46.6246C76.8334 43.4615 78.0726 41.8794 78.1874 41.8786L78.3582 41.7051C78.4721 41.5894 78.5403 41.4971 78.5628 41.4281C78.6301 41.2209 78.8462 40.9667 79.2113 40.6655C79.7126 40.1796 80.0845 39.27 80.3269 37.9366C80.4149 37.4308 80.6595 36.3844 81.0607 34.7973C81.4162 33.2335 81.716 31.8997 81.9601 30.7958C82.181 29.6463 82.2573 29.1177 82.1891 29.21L80.8921 30.7351C80.824 30.8274 80.6298 30.9552 80.3096 31.1183C79.9437 31.3047 79.6917 31.3755 79.5536 31.3307C79.4155 31.2858 79.2999 31.1719 79.2067 30.9889C79.0901 30.7602 79.0772 30.5652 79.1678 30.4038L79.3024 29.9895C79.3481 29.9662 79.4167 29.9313 79.5082 29.8847C79.5306 29.8156 79.5531 29.7466 79.5755 29.6775L79.9483 28.8827C80.447 28.0524 80.9242 27.406 81.3799 26.9434C82.223 26.1105 82.8077 26.0142 83.134 26.6546C83.181 26.746 83.25 26.8259 83.342 26.894L83.412 27.0312C83.459 27.1227 83.449 27.3868 83.384 27.8235L83.223 29.3744L82.9259 30.9951C82.8586 31.2023 82.6692 31.9613 82.3577 33.2722C82.023 34.5375 81.7335 35.722 81.4893 36.8258C81.2219 37.8839 81.1222 38.3667 81.1904 38.2744L82.2842 37.1986C83.309 36.1577 85.203 34.5592 87.964 32.4032L91.457 29.7595L92.93 28.7497C94.027 28.0756 94.724 27.6915 95.022 27.5974C95.481 27.5939 95.654 27.7648 95.542 28.11L95.338 28.387L94.86 28.9761C94.586 29.2307 94.347 29.3817 94.14 29.4292C93.728 29.5242 93.612 29.4103 93.793 29.0875C93.815 28.9037 93.734 28.8584 93.551 28.9516C93.46 28.9982 93.266 29.1259 92.969 29.3348C92.374 29.6378 91.917 29.9282 91.598 30.2061L85.847 34.6921C85.709 34.762 85.584 34.8548 85.47 34.9704C85.378 35.017 85.299 35.0865 85.23 35.1789L85.093 35.2488C85.048 35.3869 84.912 35.5142 84.683 35.6307C84.454 35.7472 84.317 35.8745 84.273 36.0126C84.136 36.1973 84.033 36.2784 83.964 36.256L83.759 36.3609C83.736 36.4299 83.588 36.5918 83.315 36.8464C81.7881 38.3732 80.9808 39.3894 80.8928 39.8952C80.5787 40.8618 80.3885 41.506 80.322 41.8279C79.7664 44.2427 78.9243 46.717 77.7957 49.2509L75.8995 53.501L74.1366 57.1647L73.1179 59.0664L72.6416 59.8276L71.9608 60.8659C71.0521 62.1355 70.2323 63.0141 69.5014 63.5017ZM80.1322 30.4309C80.4981 30.2445 80.9995 29.7586 81.6364 28.9732C82.2499 28.142 82.5101 27.635 82.4168 27.452C82.3935 27.4063 82.3133 27.4184 82.1761 27.4883C82.0155 27.5125 81.8555 27.594 81.6958 27.733C81.5362 27.872 81.3882 28.0338 81.2518 28.2185C80.6374 28.9348 80.2292 29.6037 80.0273 30.2251C79.96 30.4322 79.995 30.5008 80.1322 30.4309ZM69.0845 63.0228L69.9052 62.2589C70.6792 61.4036 71.3493 60.4573 71.9154 59.4199C72.2096 58.8667 72.4025 58.5668 72.4939 58.5202C72.5397 58.4969 72.585 58.4162 72.6299 58.2781C72.5832 58.1866 72.6057 58.1176 72.6972 58.0709C72.7429 58.0476 73.0376 57.5518 73.5812 56.5835C74.1248 55.6151 74.4527 54.9583 74.5649 54.6131L74.904 53.9218C75.0852 53.599 75.2431 53.2305 75.3777 52.8163L76.4585 50.0187C78.4163 44.8154 79.3136 42.0537 79.1505 41.7335C79.1729 41.6645 79.207 41.6183 79.2527 41.595C79.2752 41.526 79.2747 41.4686 79.2514 41.4228C79.2048 41.3313 78.9766 41.5053 78.5667 41.9446L77.8496 42.7421C77.5311 43.1347 77.3836 43.354 77.4069 43.3997L77.1674 43.6081C77.0302 43.6781 76.9504 43.7475 76.9279 43.8166C76.9512 43.8623 76.5992 44.3586 75.8717 45.3054C75.0994 46.3902 74.6226 47.0941 74.4414 47.4168L73.9987 48.0745C73.6786 48.2376 72.8398 49.6444 71.4825 52.2948C70.7136 53.8388 70.1385 55.1977 69.7572 56.3714C69.1739 58.1666 68.843 59.9483 68.7646 61.7166C68.8173 62.6116 68.924 63.047 69.0845 63.0228ZM100.853 17.9717C101.243 17.9458 101.199 18.1987 100.721 18.7303C100.676 18.7536 100.619 18.8115 100.551 18.9038C100.118 19.4122 99.811 19.7703 99.629 19.9783L99.322 20.3939L98.742 21.1215L97.991 22.0225C96.716 23.3637 95.69 24.3472 94.915 24.973L93.579 25.9129C92.802 26.4239 92.149 26.6125 91.62 26.4788C91.252 26.4356 90.963 26.0935 90.751 25.4523L90.714 25.0393L90.746 24.7636C89.877 25.2064 89.307 25.6698 89.035 26.154L88.704 27.8783L88.67 27.9819L88.26 28.3638C88.122 28.4337 88.008 28.4346 87.915 28.3664C87.754 28.2758 87.696 28.1615 87.741 28.0234L87.636 27.8176C87.838 27.1962 87.913 26.5528 87.862 25.8874L88.161 24.4388C88.27 23.6345 88.52 23.3341 88.912 23.5378C89.142 23.6508 89.259 23.8795 89.261 24.2239L89.129 24.9825L90.74 23.9027L90.808 23.8677L91.11 22.7635C91.634 22.2085 92 22.0221 92.208 22.2042C92.323 22.3181 92.279 22.571 92.076 22.9628C91.534 24.1607 91.448 24.9534 91.818 25.3408C92.119 25.7059 92.624 25.6791 93.333 25.2605C94.018 24.7961 95.101 23.8696 96.583 22.4809C97.13 21.9717 97.984 21.0469 99.145 19.7065C100.169 18.5509 100.739 17.9726 100.853 17.9717ZM114.279 11.131C114.394 11.1302 114.474 11.1755 114.521 11.2669C114.544 11.3127 114.522 11.3817 114.454 11.4741L111.455 15.5948C110.115 17.4875 108.984 18.3225 108.064 18.0999C107.283 17.9222 106.922 17.328 106.983 16.3174C107.026 15.835 107.046 15.5364 107.045 15.4216C106.909 15.6063 106.614 16.0448 106.16 16.7369C105.119 18.6503 103.933 19.7728 102.604 20.1043C101.916 20.2243 101.422 20.0444 101.119 19.5645C100.47 18.6282 100.362 18.0781 100.797 17.914C100.888 17.8674 101.038 17.8778 101.245 17.9451C101.521 18.0348 101.672 18.2173 101.697 18.4926C101.72 18.5384 101.709 18.6303 101.664 18.7684C101.62 18.9065 101.609 18.9984 101.632 19.0441C101.818 19.41 102.026 19.5921 102.256 19.5904C102.991 19.6766 104.063 18.6698 105.47 16.57C104.488 17.2432 103.915 17.4197 103.752 17.0996C103.659 16.9166 104.056 16.2249 104.942 15.0244C105.441 14.3089 105.977 13.7194 106.547 13.2559C107.163 12.7691 107.586 12.5823 107.817 12.6953C108.068 12.5097 108.331 12.4044 108.606 12.3794C108.838 12.6072 108.909 12.8592 108.819 13.1354C108.387 13.6437 108.094 14.4265 107.941 15.4837C107.765 16.4952 107.897 17.1485 108.335 17.4436C108.704 17.7163 109.526 17.1246 110.801 15.6686C112.052 14.1669 113.074 12.7243 113.867 11.3408L113.97 11.2023L114.175 11.0974L114.279 11.131ZM104.744 16.1623C104.859 16.1614 104.939 16.1493 104.985 16.126C105.007 16.057 105.121 15.9413 105.326 15.779C105.578 15.5935 105.749 15.4774 105.84 15.4308C106.205 15.1296 106.592 14.6445 107 13.9756C107.068 13.8833 107.136 13.7336 107.203 13.5264L106.792 13.7362C106.632 13.8751 106.45 14.0831 106.245 14.3602C105.267 15.4925 104.766 16.0932 104.744 16.1623Z" fill="#7C1111"/>
</svg>
