<svg width="412" height="83" viewBox="0 0 412 83" fill="none" xmlns="http://www.w3.org/2000/svg">
<g clip-path="url(#clip0_46_50)">
<path d="M-46.1851 100.004L-46.7533 99.7536L-46.6887 98.8952C-46.6429 97.858 -46.2962 97.228 -45.6486 97.0051C-45.4551 96.8815 -45.2227 96.8829 -44.9513 97.0092C-44.7257 97.192 -44.7083 97.6031 -44.8991 98.2425C-44.9798 98.4575 -44.9153 98.5797 -44.7057 98.6093C-44.5526 98.5932 -44.2463 98.561 -43.7868 98.5127C-43.1688 98.4994 -42.4366 98.345 -41.5902 98.0496L-39.8086 97.3204C-38.7177 96.896 -37.6066 96.4179 -36.4753 95.8861L-35.5885 95.4832L-34.7864 95.0118L-33.6175 94.3469C-33.4187 94.2744 -32.7388 93.8675 -31.578 93.1261C-31.2877 92.9407 -31.0231 92.758 -30.7839 92.5781C-30.5447 92.3981 -30.3513 92.2745 -30.2035 92.2074L-29.9818 92.1066C-29.9307 92.1013 -29.5693 91.8568 -28.8975 91.3733C-28.2257 90.8897 -27.8616 90.6708 -27.8052 90.7165C-27.7541 90.7111 -27.6171 90.5419 -27.394 90.2087L-26.7006 89.439L-25.9832 88.8991C-25.8568 88.6277 -25.6405 88.4759 -25.3342 88.4438C-25.1354 88.3712 -24.8989 88.1657 -24.6248 87.8272C-24.3963 87.5451 -24.2055 87.396 -24.0524 87.3799C-23.8992 87.3638 -23.7313 87.243 -23.5485 87.0173L-22.2828 85.8003C-22.1914 85.6875 -22.0772 85.5464 -21.9401 85.3772C-21.752 85.2026 -21.6123 85.0588 -21.5209 84.946L-21.4604 84.7848C-21.4658 84.7337 -21.2979 84.6129 -20.9566 84.4221C-20.7067 84.3443 -20.1598 83.8997 -19.316 83.0883C-17.9992 81.866 -16.583 80.6074 -15.0674 79.3126C-14.8336 79.0815 -14.5515 78.8196 -14.2209 78.5268C-13.8904 78.234 -13.6311 78.0002 -13.443 77.8256C-13.2548 77.651 -13.1379 77.5355 -13.0923 77.4791L-12.8101 77.2171C-12.759 77.2118 -12.5911 77.0909 -12.3062 76.8545L-10.7422 75.5287L-6.84434 72.0995C-6.61591 71.8174 -6.45064 71.671 -6.34854 71.6603C-6.19538 71.6442 -5.98174 71.4669 -5.70763 71.1284L-4.43385 69.988C-3.76741 69.4534 -3.24877 68.9859 -2.87791 68.5856L-1.68072 67.4533C-1.78282 67.464 -1.93329 67.5057 -2.13213 67.5782C-2.28529 67.5943 -2.53787 67.6466 -2.88987 67.7352C-3.24187 67.8239 -3.54282 67.9071 -3.79271 67.985L-6.58586 68.6657C-9.24869 69.3585 -11.041 69.9856 -11.9627 70.547C-12.8951 71.0063 -13.462 71.0143 -13.6635 70.5709L-13.7037 70.188C-13.6123 70.0752 -12.9675 69.8268 -11.769 69.4427C-10.576 69.0076 -9.77792 68.7431 -9.37487 68.6491L-7.8755 68.1818C-7.43213 67.9804 -6.60318 67.7642 -5.38866 67.5333C-2.82256 66.9023 -1.49115 66.5559 -1.39441 66.4941L-0.934937 66.4458C-0.668945 66.5211 -0.322311 66.3814 0.104963 66.0268L1.30216 64.8945C1.90145 64.2121 2.2145 63.9985 2.24133 64.2538C2.25206 64.3559 1.88389 64.7817 1.13681 65.5313C0.862697 65.8698 0.827742 66.0283 1.03195 66.0068C1.12332 65.894 1.80716 65.7705 3.08346 65.6364L7.86765 64.7464C8.01544 64.6792 10.6397 61.4097 15.7405 54.9377C16.5628 53.9222 16.9687 53.3634 16.9579 53.2613L17.0265 53.1767C17.1286 53.1659 17.4766 52.7938 18.0705 52.0604C19.4868 50.3115 21.028 48.5236 22.6942 46.6967C25.0403 43.9726 25.5805 43.219 24.3147 44.4359L20.836 47.434C20.4948 47.6247 20.3067 47.7993 20.2717 47.9578C20.2207 47.9632 20.1495 48.0223 20.0581 48.1352C20.0124 48.1916 19.9439 48.2762 19.8525 48.389C19.7611 48.5019 19.6671 48.5892 19.5703 48.651L18.9294 49.1829C18.7171 49.6181 18.2871 49.9472 17.6395 50.1701C17.4918 50.2373 17.4232 50.3219 17.434 50.424L17.2284 50.6779C16.6829 50.89 16.1159 51.3884 15.5273 52.1729C15.2371 52.3582 15.0665 52.4536 15.0154 52.4589C14.8676 52.5261 14.7991 52.6107 14.8098 52.7128C14.7185 52.8257 14.5989 52.9156 14.4511 52.9828C14.4054 53.0392 14.2885 53.1547 14.1004 53.3294C13.958 53.4476 13.8411 53.5631 13.7497 53.6759C13.4756 54.0144 13.2619 54.1917 13.1088 54.2078C13.0067 54.2185 12.9153 54.3314 12.8347 54.5463L12.5605 54.8848C12.5095 54.8902 11.8968 55.4449 10.7224 56.5491L9.6623 57.5122C9.61661 57.5686 9.45403 57.7405 9.17454 58.028C8.94074 58.259 8.78084 58.4565 8.69483 58.6204C8.27292 59.026 8.01092 59.2342 7.90882 59.245C7.75566 59.2611 7.49097 59.4437 7.11475 59.793C6.74926 60.2443 6.35288 60.6473 5.9256 61.0019C5.45264 61.4129 5.2242 61.695 5.2403 61.8482C5.25103 61.9503 5.20535 62.0067 5.10324 62.0174C5.05219 62.0228 4.60476 62.4311 3.76094 63.2424C3.5782 63.4681 3.43577 63.5863 3.33367 63.597C3.23156 63.6078 3.08377 63.6749 2.89029 63.7985C2.61081 64.0859 2.45765 64.102 2.43083 63.8468C2.42546 63.7957 2.65657 63.5392 3.12417 63.0771L4.0392 62.2067C4.17626 62.0374 4.27031 61.9501 4.32137 61.9447C4.37242 61.9394 4.54037 61.8185 4.82522 61.5821C5.70399 60.6122 6.21995 60.1193 6.37311 60.1032C6.47522 60.0925 6.52359 60.0616 6.51822 60.0105C6.84875 59.7177 7.17661 59.3993 7.50178 59.0555L9.40841 57.3066L9.89617 56.7908L10.7427 56.005L11.9399 54.8726L12.5808 54.3407L13.0846 53.9781C13.7242 53.1882 14.685 52.2614 15.9668 51.1976L16.6601 50.4279C16.7058 50.3715 16.8738 50.2506 17.164 50.0652L17.7364 49.618L19.5503 47.724L20.9692 46.4909C21.676 45.8488 22.024 45.4768 22.0132 45.3747C22.1046 45.2618 22.1785 45.2282 22.2349 45.2739C22.286 45.2686 22.3088 45.2404 22.3035 45.1893C22.2927 45.0872 22.3384 45.0308 22.4405 45.0201C22.4916 45.0147 22.6138 44.9502 22.8073 44.8267L23.2951 44.3108L24.0126 43.7709L26.5601 41.4901C27.1755 40.9609 27.7116 40.4142 28.1685 39.85L28.8779 39.2335C28.9693 39.1206 29.101 38.9003 29.273 38.5725C29.3026 38.363 29.4088 38.1453 29.5915 37.9197C29.8199 37.6376 30.098 37.5825 30.4258 37.7546C30.7186 38.0851 30.7642 38.519 30.5626 39.0564C30.482 39.2713 30.1702 39.7428 29.6274 40.4709C29.1302 41.1425 28.7136 41.5993 28.3777 41.841C28.1896 42.0156 27.0515 43.2192 24.9635 45.4517L22.182 48.4539L21.146 49.6467C19.7083 51.1915 17.2211 54.2918 13.6844 58.9476L10.2579 63.179L9.38311 64.4323L9.45969 64.4242C9.56179 64.4135 9.63837 64.4054 9.68942 64.4001C9.79153 64.3893 9.91916 64.3759 10.0723 64.3598C10.2255 64.3437 10.3531 64.3303 10.4552 64.3196L14.5058 63.8164C16.8945 63.4621 18.2649 63.2407 18.6169 63.1521C19.0199 63.0581 20.1834 62.8326 22.1073 62.4755C23.123 62.3171 23.7665 62.3011 24.0378 62.4274C24.6316 62.6747 24.6181 63.0375 23.9974 63.5156L22.9575 63.9346C22.6055 64.0232 22.3166 63.9762 22.091 63.7934C21.8706 63.6617 21.2527 63.6751 20.237 63.8334C17.4398 64.2307 15.0484 64.5594 13.0628 64.8198C11.3781 64.9968 10.1837 65.174 9.4797 65.3512L8.56881 65.5244L7.68597 66.7011L6.52097 68.1398L5.5857 69.5543L4.03367 71.7304L1.2803 75.7362L-1.00946 78.9964L-2.87999 81.8254C-3.06274 82.0511 -3.3006 82.489 -3.59357 83.1392C-3.84086 83.733 -3.95914 84.0809 -3.94841 84.183C-3.93768 84.2851 -3.96995 84.4691 -4.04522 84.7351C-4.12587 84.9501 -4.19171 85.0602 -4.24276 85.0656L-4.64175 84.9527C-4.90238 84.9285 -5.04611 84.7887 -5.07293 84.5335C-5.14806 83.8187 -4.86581 83.0664 -4.2262 82.2766L-3.70211 81.3698C-3.43873 80.9292 -3.25867 80.678 -3.16193 80.6162L-2.35567 79.4476C-2.22398 79.2273 -2.00091 78.8941 -1.68647 78.4481L-1.22286 77.7026C-1.17718 77.6462 -0.388397 76.5568 1.14347 74.4343L1.81267 73.4349L4.63457 69.3445L6.13417 67.4062L7.21455 65.899L6.51729 65.8948L4.68747 66.1646L2.02333 66.5994C0.65565 66.8464 -0.193456 67.1163 -0.52399 67.4092C-0.706736 67.6348 -0.991586 67.8712 -1.37854 68.1184L-5.40545 71.7934C-5.50219 71.8552 -5.62714 71.8941 -5.78029 71.9102C-5.88776 71.8699 -6.0584 71.9653 -6.2922 72.1963C-6.48031 72.3709 -6.569 72.5093 -6.55827 72.6114C-6.53144 72.8667 -6.97351 73.3261 -7.88447 73.9896L-11.9275 77.5115L-20.6222 85.3935L-21.4768 86.1027L-22.8191 87.3277L-26.717 90.757C-27.2813 91.2808 -28.0243 91.8235 -28.946 92.3849C-29.3787 92.6884 -29.8798 93.0766 -30.4495 93.5494C-30.8258 93.8987 -32.3561 94.8079 -35.0405 96.2773C-37.6793 97.6902 -39.2513 98.449 -39.7564 98.5537C-40.0117 98.5805 -40.3838 98.7229 -40.8729 98.9807C-43.2832 100.112 -45.054 100.452 -46.1851 100.004ZM24.6754 68.6318C25.0489 68.7474 24.9172 68.9677 24.2803 69.2927C24.2293 69.2981 24.1554 69.3317 24.0587 69.3934C23.4729 69.7131 23.0577 69.9374 22.8132 70.0663L22.3778 70.3443L21.5757 70.8158L20.5519 71.3879C18.8805 72.183 17.5706 72.7336 16.6221 73.0397L15.0381 73.4385C14.1299 73.6372 13.4528 73.5793 13.0068 73.2649C12.679 73.0929 12.5313 72.6697 12.5636 71.9952L12.6766 71.5963L12.8056 71.3504C11.8356 71.4524 11.1369 71.6807 10.7097 72.0353L9.78245 73.5263L9.71392 73.611L9.19397 73.8205C9.04081 73.8366 8.93334 73.7962 8.87156 73.6995C8.75336 73.5571 8.73994 73.4295 8.83132 73.3166L8.80717 73.0869C9.21835 72.5791 9.51937 72.0055 9.71024 71.3661L10.5085 70.1208C10.8982 69.4088 11.2394 69.2181 11.5323 69.5487C11.7069 69.7368 11.7337 69.992 11.6127 70.3144L11.2177 70.9754L13.108 70.5444L13.1845 70.5363L13.8618 69.6135C14.5497 69.2831 14.9581 69.2402 15.087 69.4847C15.1542 69.6325 15.0225 69.8528 14.692 70.1456C13.7568 71.0698 13.3926 71.7791 13.5994 72.2735C13.7498 72.7222 14.2307 72.8782 15.0422 72.7413C15.8483 72.5533 17.1918 72.0766 19.0728 71.3111C19.7661 71.0318 20.8946 70.4744 22.4586 69.639C23.829 68.9272 24.5679 68.5915 24.6754 68.6318ZM28.428 68.4697C28.5543 68.1983 28.4415 68.1069 28.0895 68.1955C27.0845 68.456 25.8806 69.2794 24.4779 70.6656C24.4375 70.7731 24.369 70.8577 24.2723 70.9195L24.2037 71.0041L23.5426 72.0801L23.4741 72.1647L22.9541 72.3742C22.801 72.3903 22.6935 72.35 22.6317 72.2533C22.5135 72.1108 22.5001 71.9832 22.5915 71.8704L22.5673 71.6406C22.9785 71.1329 23.2795 70.5593 23.4704 69.9198L23.934 69.1743C24.3237 68.4623 24.665 68.2716 24.9578 68.6021C25.1324 68.7902 25.1592 69.0455 25.0383 69.3679L24.9698 69.4525L26.046 68.6426C27.8733 67.3666 28.9723 67.0188 29.343 67.5992C29.574 67.833 29.6291 68.1111 29.5081 68.4336C29.4382 68.7506 29.2501 68.9252 28.9438 68.9574C28.6885 68.9842 28.53 68.9493 28.4682 68.8525C28.35 68.7101 28.3366 68.5825 28.428 68.4697ZM42.4096 66.6904C42.7052 66.5561 42.8865 66.5629 42.9537 66.7107C43.0101 66.7564 42.9442 66.8665 42.7561 67.0411C42.6594 67.1029 42.5627 67.1647 42.4659 67.2265L42.2523 67.4038C41.5241 67.8416 40.9154 68.1895 40.4264 68.4474C39.9884 68.6999 39.4993 68.9577 38.9592 69.221C38.4701 69.4788 38.0066 69.734 37.5686 69.9865C34.7417 71.574 31.966 72.6658 29.2413 73.2619C28.1746 73.4256 27.4061 73.4806 26.9359 73.4268C25.6275 73.2546 25.1171 72.3275 25.4048 70.6456C25.5043 70.119 25.8228 69.9565 26.3601 70.1581C26.6261 70.2333 26.7161 70.3529 26.6301 70.5168C26.4096 71.3658 26.3383 71.9153 26.4162 72.1652C26.5156 72.6193 27.2289 72.7766 28.5563 72.6371C31.0928 72.2156 34.101 71.1252 37.5808 69.3658L39.9952 68.0281L42.4096 66.6904ZM43.9749 71.7133C43.0613 71.861 42.3694 71.9079 41.8992 71.8541C40.6418 71.6765 40.1273 70.9564 40.3559 69.6936C40.3398 69.5404 40.4379 69.2462 40.6503 68.8109C41.4136 67.2339 42.6565 66.0451 44.3789 65.2447C45.5559 64.6564 46.2424 64.5584 46.4385 64.9508C46.5003 65.0475 46.3914 65.2396 46.1119 65.5271C45.8835 65.8091 45.4844 66.1866 44.9147 66.6594C43.8774 67.5943 42.9611 68.2068 42.1657 68.4968C41.7224 68.6983 41.4604 68.9065 41.3797 69.1214C41.0599 69.5163 41.0343 70.0094 41.3029 70.6005C41.4023 71.0546 42.0646 71.2173 43.2898 71.0885C45.8263 70.6671 48.8345 69.5767 52.3143 67.8173L54.7287 66.4796L57.1431 65.1419C57.4387 65.0076 57.62 65.0143 57.6872 65.1621C57.7436 65.2078 57.6778 65.318 57.4897 65.4926C57.3929 65.5544 57.2962 65.6161 57.1994 65.6779L56.9858 65.8552C56.2576 66.2931 55.6489 66.6409 55.1599 66.8988C54.7219 67.1513 54.2328 67.4092 53.6927 67.6724C53.2037 67.9303 52.7401 68.1855 52.3021 68.438C49.4752 70.0255 46.6995 71.1173 43.9749 71.7133ZM42.3069 67.6303L43.0486 67.3201C43.1964 67.2529 43.3415 67.1603 43.4839 67.0421C44.4459 66.3732 45.0411 65.8977 45.2696 65.6156C45.2642 65.5645 45.1137 65.6062 44.8182 65.7405C44.5683 65.8183 44.3237 65.9473 44.0846 66.1273C43.8347 66.2051 43.4732 66.4496 43.0003 66.8606C42.5784 67.2663 42.3473 67.5228 42.3069 67.6303ZM67.8146 69.2077C66.7479 69.3714 65.9794 69.4264 65.5092 69.3726C63.9401 69.1762 63.2994 68.237 63.5872 66.555C63.6464 66.1359 63.6249 65.9317 63.5228 65.9424C63.5174 65.8914 63.3925 65.9303 63.1479 66.0592C62.5729 66.481 61.6297 66.8382 60.3185 67.1309C59.91 67.1738 59.5957 67.1294 59.3754 66.9977C59.1551 66.866 59.0906 66.7438 59.182 66.6309L58.3113 67.187C58.1232 67.3616 57.9096 67.5389 57.6704 67.7189C56.4746 68.6188 55.7639 68.9774 55.5382 68.7946C55.3689 68.6576 55.3623 68.3486 55.5182 67.8677C55.8972 67.0536 56.6349 65.9695 57.7314 64.6155C57.8281 64.5537 57.9557 64.5403 58.1143 64.5753C58.3238 64.6049 58.4313 64.6452 58.4367 64.6962L58.4608 64.926C58.5897 65.1705 58.2377 65.7495 57.4046 66.6629L57.1305 67.0014C57.1869 67.0471 57.2635 67.039 57.3602 66.9772L57.5053 66.8846L57.7955 66.6992L57.9326 66.53L59.0088 65.72L59.3595 65.3735C59.7814 64.9678 60.1334 64.8792 60.4155 65.1076C60.5283 65.199 60.5498 65.4032 60.4799 65.7203C60.3536 65.9916 60.3697 66.1448 60.5282 66.1797C60.7378 66.2093 61.4364 65.981 62.6241 65.4949C63.8064 64.9577 64.4433 64.6327 64.5346 64.5198C64.9619 64.1652 65.3394 64.0739 65.6672 64.246C65.8929 64.4287 65.866 64.6638 65.5865 64.9513C64.9711 65.4805 64.6526 66.1334 64.631 66.9099C64.639 67.4768 64.7329 67.8799 64.9129 68.119C65.2165 68.5517 65.9554 68.7063 67.1296 68.5829C69.3597 68.1936 72.3626 67.0521 76.138 65.1585L77.1013 64.7475L79.5157 63.4098L79.8139 63.301L80.5395 62.8377C80.5905 62.8323 80.6644 62.7987 80.7612 62.7369C80.8579 62.6752 80.9318 62.6416 80.9829 62.6362L81.2126 62.6121C81.3818 62.7491 81.4436 62.8459 81.3979 62.9023C81.4033 62.9533 81.2837 63.0433 81.0392 63.1723L80.8256 63.3496C79.4659 64.1635 77.9046 65.0244 76.1419 65.9323C73.315 67.5198 70.5392 68.6116 67.8146 69.2077ZM82.9987 65.9084C82.7434 65.9353 82.5258 65.8291 82.3458 65.5899C82.1147 65.3561 82.0342 65.0807 82.1041 64.7637C82.0773 64.5084 82.127 64.2451 82.2533 63.9737L82.4267 63.4136C82.4214 63.3625 82.3219 63.3988 82.1285 63.5223C81.986 63.6405 81.7979 63.8151 81.5641 64.0462C81.325 64.2262 81.1113 64.4035 80.9232 64.5781C79.937 65.5076 79.1375 66.0046 78.5249 66.0689C78.0655 66.1172 77.8196 65.9882 77.7874 65.6819C77.7713 65.5288 77.9259 65.2802 78.251 64.9364C79.0895 64.074 80.1832 63.1848 81.5322 62.2688C82.1583 61.8417 82.5452 61.5945 82.693 61.5274C82.8919 61.4549 83.0249 61.4925 83.092 61.6403C83.1028 61.7424 83.2357 61.78 83.491 61.7532C83.6952 61.7317 83.8282 61.7694 83.89 61.8661C83.9975 61.9064 84.0109 62.0341 83.9302 62.249C83.8442 62.4129 83.7811 62.5486 83.7408 62.656C83.7004 62.7635 83.6117 62.9019 83.4747 63.0711C82.8915 63.9067 82.757 64.5918 83.0713 65.1266C83.0821 65.2287 83.164 65.2717 83.3172 65.2556C83.5214 65.2341 83.6974 65.1898 83.8452 65.1226L84.1434 65.0139C85.0409 64.7131 87.1704 63.6118 90.5321 61.71L90.6772 61.6173L90.9069 61.5932L90.9915 61.6617C91.048 61.7074 91.0815 61.7813 91.0923 61.8834C91.0976 61.9344 91.0775 61.9882 91.0318 62.0446L86.8761 64.4944L84.1473 65.7877L83.9176 65.8119C83.6166 65.8951 83.3103 65.9273 82.9987 65.9084ZM78.6056 65.3636L79.049 65.1622C80.1131 64.4826 80.7594 64.0017 80.9878 63.7196C81.1706 63.494 81.5038 63.2267 81.9875 62.9177C82.2831 62.7834 82.4255 62.6652 82.4148 62.5631C82.3987 62.41 82.1031 62.5443 81.528 62.966C80.4585 63.5946 79.6268 64.2756 79.0329 65.009L78.6056 65.3636ZM132.099 81.2652L131.53 81.0153L131.595 80.1568C131.641 79.1197 131.987 78.4896 132.635 78.2667C132.829 78.1432 133.061 78.1445 133.332 78.2709C133.558 78.4536 133.575 78.8647 133.384 79.5042C133.304 79.7191 133.368 79.8414 133.578 79.871C133.731 79.8549 134.037 79.8227 134.497 79.7744C135.115 79.761 135.847 79.6067 136.693 79.3112L138.475 78.582C139.566 78.1577 140.677 77.6796 141.808 77.1477L142.695 76.7448L143.497 76.2734L144.666 75.6086C144.865 75.5361 145.545 75.1291 146.706 74.3877C146.996 74.2023 147.261 74.0197 147.5 73.8397C147.739 73.6597 147.932 73.5361 148.08 73.469L148.302 73.3683C148.353 73.3629 148.714 73.1184 149.386 72.6349C150.058 72.1514 150.422 71.9324 150.478 71.9781C150.529 71.9728 150.667 71.8035 150.89 71.4704L151.583 70.7007L152.3 70.1607C152.427 69.8894 152.643 69.7376 152.949 69.7054C153.148 69.6329 153.385 69.4274 153.659 69.0889C153.887 68.8068 154.078 68.6577 154.231 68.6416C154.384 68.6255 154.552 68.5046 154.735 68.2789L156.001 67.062C156.092 66.9491 156.206 66.8081 156.343 66.6388C156.532 66.4642 156.671 66.3205 156.763 66.2076L156.823 66.0464C156.818 65.9954 156.986 65.8745 157.327 65.6838C157.577 65.6059 158.124 65.1613 158.968 64.35C160.284 63.1276 161.701 61.8691 163.216 60.5742C163.45 60.3432 163.732 60.0812 164.063 59.7884C164.393 59.4956 164.653 59.2619 164.841 59.0873C165.029 58.9126 165.146 58.7971 165.191 58.7407L165.474 58.4788C165.525 58.4734 165.693 58.3525 165.977 58.1161L167.541 56.7904L171.439 53.3611C171.668 53.079 171.833 52.9326 171.935 52.9219C172.088 52.9058 172.302 52.7285 172.576 52.39L173.85 51.2496C174.516 50.715 175.035 50.2476 175.406 49.8473L176.603 48.7149C176.501 48.7257 176.35 48.7673 176.151 48.8398C175.998 48.8559 175.746 48.9083 175.394 48.9969C175.042 49.0855 174.741 49.1687 174.491 49.2466L171.698 49.9273C169.035 50.6201 167.243 51.2472 166.321 51.8086C165.389 52.268 164.822 52.2759 164.62 51.8326L164.58 51.4497C164.671 51.3368 165.316 51.0884 166.515 50.7044C167.708 50.2693 168.506 50.0047 168.909 49.9108L170.408 49.4435C170.851 49.242 171.68 49.0258 172.895 48.795C175.461 48.1639 176.792 47.8175 176.889 47.7558L177.349 47.7075C177.615 47.7827 177.961 47.6431 178.389 47.2885L179.586 46.1561C180.185 45.4737 180.498 45.2602 180.525 45.5154C180.536 45.6176 180.167 46.0434 179.42 46.7929C179.146 47.1314 179.111 47.2899 179.316 47.2685C179.407 47.1556 180.091 47.0321 181.367 46.898L186.151 46.008C186.299 45.9409 188.923 42.6713 194.024 36.1994C194.846 35.1838 195.252 34.625 195.242 34.5229L195.31 34.4383C195.412 34.4276 195.76 34.0555 196.354 33.3221C197.77 31.5731 199.312 29.7852 200.978 27.9584C203.324 25.2342 203.864 24.4806 202.598 25.6976L199.12 28.6956C198.778 28.8863 198.59 29.061 198.555 29.2195C198.504 29.2249 198.433 29.284 198.342 29.3968C198.296 29.4532 198.227 29.5378 198.136 29.6507C198.045 29.7635 197.951 29.8508 197.854 29.9126L197.213 30.4445C197.001 30.8798 196.571 31.2088 195.923 31.4317C195.775 31.4989 195.707 31.5835 195.718 31.6856L195.512 31.9395C194.966 32.1517 194.399 32.65 193.811 33.4345C193.521 33.6199 193.35 33.7152 193.299 33.7206C193.151 33.7877 193.083 33.8724 193.093 33.9745C193.002 34.0873 192.882 34.1773 192.735 34.2444C192.689 34.3009 192.572 34.4164 192.384 34.591C192.242 34.7092 192.125 34.8247 192.033 34.9375C191.759 35.2761 191.546 35.4534 191.392 35.4695C191.29 35.4802 191.199 35.593 191.118 35.808L190.844 36.1465C190.793 36.1518 190.18 36.7066 189.006 37.8107L187.946 38.7738C187.9 38.8302 187.738 39.0022 187.458 39.2896C187.224 39.5207 187.064 39.7181 186.978 39.882C186.557 40.2877 186.295 40.4959 186.192 40.5066C186.039 40.5227 185.775 40.7054 185.398 41.0546C185.033 41.5059 184.636 41.9089 184.209 42.2635C183.736 42.6745 183.508 42.9566 183.524 43.1098C183.535 43.2119 183.489 43.2683 183.387 43.279C183.336 43.2844 182.888 43.6928 182.045 44.5041C181.862 44.7297 181.719 44.8479 181.617 44.8587C181.515 44.8694 181.367 44.9366 181.174 45.0601C180.894 45.3476 180.741 45.3637 180.714 45.1084C180.709 45.0574 180.94 44.8008 181.408 44.3387L182.323 43.4683C182.46 43.2991 182.554 43.2117 182.605 43.2064C182.656 43.201 182.824 43.0801 183.109 42.8437C183.988 41.8739 184.504 41.3809 184.657 41.3648C184.759 41.3541 184.807 41.3232 184.802 41.2721C185.132 40.9793 185.46 40.661 185.785 40.3171L187.692 38.5682L188.18 38.0524L189.026 37.2666L190.223 36.1343L190.864 35.6024L191.368 35.2397C192.008 34.4499 192.969 33.523 194.25 32.4592L194.944 31.6895C194.989 31.6331 195.157 31.5122 195.448 31.3269L196.02 30.8796L197.834 28.9856L199.253 27.7525C199.96 27.1105 200.308 26.7384 200.297 26.6363C200.388 26.5235 200.462 26.4899 200.519 26.5356C200.57 26.5302 200.592 26.502 200.587 26.4509C200.576 26.3488 200.622 26.2924 200.724 26.2817C200.775 26.2763 200.897 26.2119 201.091 26.0883L201.579 25.5725L202.296 25.0325L204.844 22.7517C205.459 22.2225 205.995 21.6758 206.452 21.1116L207.162 20.4951C207.253 20.3823 207.385 20.162 207.557 19.8342C207.586 19.6246 207.692 19.407 207.875 19.1813C208.104 18.8992 208.382 18.8442 208.709 19.0162C209.002 19.3467 209.048 19.7807 208.846 20.318C208.766 20.533 208.454 21.0045 207.911 21.7325C207.414 22.4042 206.997 22.8609 206.661 23.1027C206.473 23.2773 205.335 24.4808 203.247 26.7133L200.466 29.7155L199.43 30.9083C197.992 32.4531 195.505 35.5534 191.968 40.2093L188.542 44.4406L187.667 45.6939L187.743 45.6859C187.845 45.6751 187.922 45.6671 187.973 45.6617C188.075 45.651 188.203 45.6376 188.356 45.6215C188.509 45.6054 188.637 45.592 188.739 45.5812L192.789 45.0781C195.178 44.7238 196.548 44.5023 196.9 44.4137C197.304 44.3197 198.467 44.0942 200.391 43.7371C201.407 43.5788 202.05 43.5628 202.321 43.6891C202.915 43.9364 202.902 44.2991 202.281 44.7773L201.241 45.1963C200.889 45.2849 200.6 45.2378 200.375 45.0551C200.154 44.9234 199.536 44.9367 198.521 45.0951C195.723 45.4923 193.332 45.8211 191.346 46.0814C189.662 46.2585 188.467 46.4356 187.763 46.6128L186.852 46.786L185.97 47.9627L184.805 49.4014L183.869 50.8159L182.317 52.9921L179.564 56.9978L177.274 60.258L175.404 63.087C175.221 63.3127 174.983 63.7506 174.69 64.4008C174.443 64.9946 174.324 65.3425 174.335 65.4446C174.346 65.5467 174.314 65.7308 174.238 65.9968C174.158 66.2117 174.092 66.3219 174.041 66.3272L173.642 66.2143C173.381 66.1901 173.237 66.0504 173.211 65.7951C173.136 65.0804 173.418 64.3281 174.057 63.5382L174.581 62.6315C174.845 62.1909 175.025 61.9397 175.122 61.8779L175.928 60.7092C176.06 60.4889 176.283 60.1558 176.597 59.7098L177.061 58.9642C177.106 58.9078 177.895 57.8184 179.427 55.696L180.096 54.6966L182.918 50.6062L184.418 48.6678L185.498 47.1606L184.801 47.1565L182.971 47.4262L180.307 47.8611C178.939 48.1081 178.09 48.378 177.76 48.6708C177.577 48.8965 177.292 49.1329 176.905 49.38L172.878 53.0551C172.781 53.1168 172.656 53.1558 172.503 53.1719C172.396 53.1316 172.225 53.2269 171.991 53.458C171.803 53.6326 171.715 53.7709 171.725 53.873C171.752 54.1283 171.31 54.5877 170.399 55.2512L166.356 58.7731L157.661 66.6551L156.807 67.3644L155.465 68.5894L151.567 72.0186C151.002 72.5425 150.259 73.0851 149.338 73.6465C148.905 73.9501 148.404 74.3383 147.834 74.8111C147.458 75.1603 145.928 76.0696 143.243 77.5389C140.604 78.9518 139.032 79.7106 138.527 79.8153C138.272 79.8421 137.9 79.9845 137.411 80.2424C135 81.3732 133.23 81.7141 132.099 81.2652ZM202.959 49.8934C203.332 50.009 203.201 50.2293 202.564 50.5543C202.513 50.5597 202.439 50.5933 202.342 50.6551C201.756 50.9747 201.341 51.199 201.097 51.3279L200.661 51.606L199.859 52.0774L198.836 52.6496C197.164 53.4446 195.854 53.9952 194.906 54.3014L193.322 54.7001C192.413 54.8988 191.736 54.841 191.29 54.5265C190.963 54.3545 190.815 53.9313 190.847 53.2569L190.96 52.8579L191.089 52.6121C190.119 52.714 189.421 52.9423 188.993 53.2969L188.066 54.788L187.998 54.8726L187.478 55.0821C187.324 55.0982 187.217 55.0579 187.155 54.9611C187.037 54.8187 187.024 54.6911 187.115 54.5783L187.091 54.3485C187.502 53.8408 187.803 53.2672 187.994 52.6277L188.792 51.3824C189.182 50.6705 189.523 50.4798 189.816 50.8103C189.99 50.9984 190.017 51.2537 189.896 51.5761L189.501 52.237L191.392 51.806L191.468 51.798L192.145 50.8751C192.833 50.5448 193.242 50.5018 193.371 50.7464C193.438 50.8942 193.306 51.1145 192.976 51.4073C192.04 52.3314 191.676 53.0407 191.883 53.5351C192.033 53.9839 192.514 54.1398 193.326 54.0029C194.132 53.8149 195.475 53.3382 197.356 52.5727C198.05 52.2934 199.178 51.7361 200.742 50.9007C202.113 50.1889 202.852 49.8531 202.959 49.8934ZM206.712 49.7313C206.838 49.4599 206.725 49.3686 206.373 49.4572C205.368 49.7176 204.164 50.541 202.761 51.9272C202.721 52.0347 202.653 52.1193 202.556 52.1811L202.487 52.2657L201.826 53.3417L201.758 53.4264L201.238 53.6359C201.085 53.652 200.977 53.6116 200.915 53.5149C200.797 53.3725 200.784 53.2448 200.875 53.132L200.851 52.9023C201.262 52.3945 201.563 51.8209 201.754 51.1814L202.218 50.4359C202.607 49.7239 202.949 49.5332 203.241 49.8638C203.416 50.0519 203.443 50.3071 203.322 50.6295L203.253 50.7142L204.33 49.9042C206.157 48.6282 207.256 48.2804 207.627 48.8609C207.858 49.0947 207.913 49.3728 207.792 49.6952C207.722 50.0122 207.534 50.1869 207.227 50.2191C206.972 50.2459 206.814 50.2109 206.752 50.1142C206.634 49.9718 206.62 49.8441 206.712 49.7313ZM220.693 47.9521C220.989 47.8178 221.17 47.8245 221.237 47.9723C221.294 48.018 221.228 48.1281 221.04 48.3028C220.943 48.3646 220.846 48.4263 220.75 48.4881L220.536 48.6654C219.808 49.1033 219.199 49.4511 218.71 49.709C218.272 49.9615 217.783 50.2194 217.243 50.4826C216.754 50.7405 216.29 50.9956 215.852 51.2482C213.025 52.8357 210.25 53.9275 207.525 54.5235C206.458 54.6873 205.69 54.7422 205.22 54.6884C203.911 54.5162 203.401 53.5892 203.688 51.9072C203.788 51.3806 204.106 51.2181 204.644 51.4197C204.91 51.495 205 51.6146 204.914 51.7784C204.693 52.6275 204.622 53.1769 204.7 53.4268C204.799 53.8809 205.513 54.0382 206.84 53.8987C209.376 53.4773 212.385 52.3869 215.864 50.6275L218.279 49.2898L220.693 47.9521ZM222.258 52.975C221.345 53.1226 220.653 53.1695 220.183 53.1157C218.925 52.9382 218.411 52.218 218.64 50.9552C218.623 50.802 218.722 50.5078 218.934 50.0726C219.697 48.4955 220.94 47.3067 222.663 46.5063C223.839 45.9181 224.526 45.8201 224.722 46.2124C224.784 46.3091 224.675 46.5012 224.396 46.7887C224.167 47.0708 223.768 47.4482 223.198 47.921C222.161 48.8559 221.245 49.4684 220.449 49.7585C220.006 49.9599 219.744 50.1681 219.663 50.383C219.344 50.778 219.318 51.271 219.587 51.8622C219.686 52.3163 220.348 52.4789 221.573 52.3502C224.11 51.9287 227.118 50.8383 230.598 49.0789L233.012 47.7412L235.427 46.4035C235.722 46.2692 235.904 46.276 235.971 46.4238C236.027 46.4694 235.961 46.5796 235.773 46.7542C235.677 46.816 235.58 46.8778 235.483 46.9396L235.269 47.1169C234.541 47.5547 233.933 47.9026 233.443 48.1604C233.005 48.4129 232.516 48.6708 231.976 48.934C231.487 49.1919 231.024 49.4471 230.586 49.6996C227.759 51.2871 224.983 52.3789 222.258 52.975ZM220.591 48.8919L221.332 48.5817C221.48 48.5146 221.625 48.4219 221.768 48.3037C222.73 47.6348 223.325 47.1593 223.553 46.8772C223.548 46.8262 223.397 46.8678 223.102 47.0021C222.852 47.08 222.607 47.2089 222.368 47.3889C222.118 47.4668 221.757 47.7112 221.284 48.1223C220.862 48.5279 220.631 48.7845 220.591 48.8919ZM246.098 50.4693C245.031 50.633 244.263 50.688 243.793 50.6342C242.224 50.4378 241.583 49.4986 241.871 47.8167C241.93 47.3975 241.908 47.1933 241.806 47.204C241.801 47.153 241.676 47.1919 241.432 47.3209C240.856 47.7426 239.913 48.0998 238.602 48.3925C238.194 48.4354 237.879 48.391 237.659 48.2593C237.439 48.1277 237.374 48.0054 237.466 47.8926L236.595 48.4486C236.407 48.6232 236.193 48.8005 235.954 48.9805C234.758 49.8804 234.047 50.239 233.822 50.0563C233.653 49.9192 233.646 49.6102 233.802 49.1293C234.181 48.3152 234.918 47.2312 236.015 45.8771C236.112 45.8154 236.239 45.8019 236.398 45.8369C236.607 45.8665 236.715 45.9068 236.72 45.9579L236.744 46.1876C236.873 46.4321 236.521 47.0111 235.688 47.9245L235.414 48.263C235.47 48.3087 235.547 48.3007 235.644 48.2389L235.789 48.1462L236.079 47.9609L236.216 47.7916L237.292 46.9817L237.643 46.6351C238.065 46.2295 238.417 46.1408 238.699 46.3693C238.812 46.4606 238.833 46.6649 238.764 46.9819C238.637 47.2533 238.653 47.4064 238.812 47.4414C239.021 47.471 239.72 47.2427 240.908 46.7565C242.09 46.2193 242.727 45.8943 242.818 45.7815C243.246 45.4269 243.623 45.3356 243.951 45.5076C244.176 45.6903 244.15 45.9254 243.87 46.2129C243.255 46.7421 242.936 47.395 242.915 48.1715C242.923 48.7384 243.017 49.1415 243.197 49.3807C243.5 49.8133 244.239 49.9679 245.413 49.8445C247.643 49.4552 250.646 48.3138 254.422 46.4201L255.385 46.0092L257.799 44.6715L258.098 44.5627L258.823 44.0993C258.874 44.0939 258.948 44.0604 259.045 43.9986C259.142 43.9368 259.215 43.9032 259.266 43.8979L259.496 43.8737C259.665 44.0108 259.727 44.1075 259.682 44.1639C259.687 44.215 259.567 44.305 259.323 44.4339L259.109 44.6112C257.749 45.4251 256.188 46.286 254.425 47.1939C251.599 48.7815 248.823 49.8732 246.098 50.4693ZM261.282 47.1701C261.027 47.1969 260.809 47.0907 260.629 46.8516C260.398 46.6178 260.318 46.3424 260.388 46.0253C260.361 45.7701 260.411 45.5067 260.537 45.2354L260.71 44.6752C260.705 44.6241 260.606 44.6604 260.412 44.784C260.27 44.9022 260.082 45.0768 259.848 45.3078C259.609 45.4878 259.395 45.6651 259.207 45.8397C258.221 46.7692 257.421 47.2662 256.809 47.3306C256.349 47.3789 256.103 47.2499 256.071 46.9436C256.055 46.7904 256.209 46.5419 256.535 46.198C257.373 45.3356 258.467 44.4464 259.816 43.5304C260.442 43.1033 260.829 42.8562 260.977 42.789C261.175 42.7165 261.308 42.7541 261.376 42.9019C261.386 43.004 261.519 43.0417 261.775 43.0148C261.979 42.9934 262.112 43.031 262.174 43.1278C262.281 43.1681 262.294 43.2957 262.214 43.5107C262.128 43.6745 262.065 43.8102 262.024 43.9177C261.984 44.0252 261.895 44.1635 261.758 44.3328C261.175 45.1683 261.041 45.8535 261.355 46.3882C261.366 46.4903 261.448 46.5333 261.601 46.5172C261.805 46.4957 261.981 46.4514 262.129 46.3843L262.427 46.2755C263.324 45.9747 265.454 44.8734 268.816 42.9716L268.961 42.8789L269.191 42.8548L269.275 42.9233C269.332 42.969 269.365 43.0429 269.376 43.145C269.381 43.1961 269.361 43.2498 269.315 43.3062L265.16 45.756L262.431 47.0493L262.201 47.0735C261.9 47.1567 261.594 47.1889 261.282 47.1701ZM256.889 46.6253L257.333 46.4238C258.397 45.7442 259.043 45.2634 259.271 44.9813C259.454 44.7556 259.787 44.4883 260.271 44.1794C260.567 44.0451 260.709 43.9269 260.698 43.8248C260.682 43.6716 260.387 43.8059 259.812 44.2277C258.742 44.8562 257.91 45.5372 257.317 46.2707L256.889 46.6253ZM310.382 62.5269L309.814 62.2769L309.878 61.4184C309.924 60.3813 310.271 59.7513 310.919 59.5284C311.112 59.4048 311.345 59.4062 311.616 59.5325C311.842 59.7152 311.859 60.1263 311.668 60.7658C311.587 60.9807 311.652 61.103 311.861 61.1326C312.015 61.1165 312.321 61.0843 312.78 61.036C313.398 61.0227 314.131 60.8683 314.977 60.5729L316.759 59.8436C317.85 59.4193 318.961 58.9412 320.092 58.4094L320.979 58.0065L321.781 57.535L322.95 56.8702C323.149 56.7977 323.828 56.3907 324.989 55.6493C325.279 55.464 325.544 55.2813 325.783 55.1013C326.022 54.9213 326.216 54.7978 326.364 54.7306L326.585 54.6299C326.636 54.6245 326.998 54.3801 327.67 53.8965C328.342 53.413 328.706 53.1941 328.762 53.2398C328.813 53.2344 328.95 53.0651 329.173 52.732L329.867 51.9623L330.584 51.4224C330.71 51.151 330.927 50.9992 331.233 50.967C331.432 50.8945 331.668 50.689 331.942 50.3505C332.171 50.0684 332.362 49.9193 332.515 49.9032C332.668 49.8871 332.836 49.7662 333.019 49.5406L334.284 48.3236C334.376 48.2108 334.49 48.0697 334.627 47.9005C334.815 47.7258 334.955 47.5821 335.046 47.4693L335.107 47.3081C335.101 47.257 335.269 47.1361 335.611 46.9454C335.861 46.8675 336.407 46.4229 337.251 45.6116C338.568 44.3893 339.984 43.1307 341.5 41.8358C341.734 41.6048 342.016 41.3429 342.346 41.0501C342.677 40.7572 342.936 40.5235 343.124 40.3489C343.312 40.1743 343.429 40.0588 343.475 40.0023L343.757 39.7404C343.808 39.735 343.976 39.6142 344.261 39.3778L345.825 38.052L349.723 34.6228C349.951 34.3407 350.117 34.1943 350.219 34.1835C350.372 34.1674 350.585 33.9901 350.86 33.6516L352.133 32.5112C352.8 31.9767 353.318 31.5092 353.689 31.1089L354.886 29.9766C354.784 29.9873 354.634 30.0289 354.435 30.1014C354.282 30.1175 354.029 30.1699 353.677 30.2585C353.325 30.3471 353.024 30.4304 352.774 30.5083L349.981 31.1889C347.319 31.8818 345.526 32.5089 344.605 33.0703C343.672 33.5296 343.105 33.5376 342.904 33.0942L342.863 32.7113C342.955 32.5985 343.6 32.35 344.798 31.966C345.991 31.5309 346.789 31.2664 347.192 31.1724L348.692 30.7051C349.135 30.5037 349.964 30.2875 351.179 30.0566C353.745 29.4256 355.076 29.0792 355.173 29.0174L355.632 28.9691C355.898 29.0444 356.245 28.9047 356.672 28.5501L357.869 27.4178C358.469 26.7354 358.782 26.5218 358.809 26.7771C358.819 26.8792 358.451 27.305 357.704 28.0545C357.43 28.393 357.395 28.5516 357.599 28.5301C357.691 28.4173 358.374 28.2938 359.651 28.1596L364.435 27.2697C364.583 27.2025 367.207 23.933 372.308 17.461C373.13 16.4455 373.536 15.8867 373.525 15.7846L373.594 15.6999C373.696 15.6892 374.044 15.3171 374.638 14.5837C376.054 12.8347 377.595 11.0468 379.261 9.22C381.607 6.49584 382.148 5.74225 380.882 6.95922L377.403 9.95727C377.062 10.148 376.874 10.3226 376.839 10.4811C376.788 10.4865 376.717 10.5456 376.625 10.6584C376.58 10.7148 376.511 10.7995 376.42 10.9123C376.328 11.0251 376.234 11.1125 376.138 11.1742L375.497 11.7061C375.284 12.1414 374.854 12.4705 374.207 12.6934C374.059 12.7605 373.99 12.8452 374.001 12.9473L373.796 13.2011C373.25 13.4133 372.683 13.9117 372.095 14.6961C371.804 14.8815 371.634 14.9768 371.583 14.9822C371.435 15.0494 371.366 15.134 371.377 15.2361C371.286 15.3489 371.166 15.4389 371.018 15.5061C370.973 15.5625 370.856 15.678 370.668 15.8526C370.525 15.9708 370.408 16.0864 370.317 16.1992C370.043 16.5377 369.829 16.715 369.676 16.7311C369.574 16.7418 369.483 16.8547 369.402 17.0696L369.128 17.4081C369.077 17.4135 368.464 17.9682 367.29 19.0724L366.23 20.0355C366.184 20.0919 366.021 20.2638 365.742 20.5513C365.508 20.7823 365.348 20.9798 365.262 21.1437C364.84 21.5493 364.578 21.7575 364.476 21.7682C364.323 21.7843 364.058 21.967 363.682 22.3162C363.316 22.7676 362.92 23.1706 362.493 23.5252C362.02 23.9362 361.791 24.2183 361.808 24.3714C361.818 24.4735 361.773 24.53 361.67 24.5407C361.619 24.546 361.172 24.9544 360.328 25.7657C360.145 25.9914 360.003 26.1096 359.901 26.1203C359.799 26.131 359.651 26.1982 359.458 26.3218C359.178 26.6092 359.025 26.6253 358.998 26.37C358.993 26.319 359.224 26.0624 359.691 25.6004L360.606 24.7299C360.743 24.5607 360.838 24.4734 360.889 24.468C360.94 24.4626 361.108 24.3418 361.392 24.1054C362.271 23.1355 362.787 22.6426 362.94 22.6265C363.042 22.6157 363.091 22.5848 363.085 22.5338C363.416 22.241 363.744 21.9226 364.069 21.5787L365.976 19.8299L366.463 19.3141L367.31 18.5283L368.507 17.3959L369.148 16.864L369.652 16.5014C370.291 15.7115 371.252 14.7847 372.534 13.7209L373.227 12.9512C373.273 12.8948 373.441 12.7739 373.731 12.5885L374.304 12.1412L376.118 10.2472L377.536 9.01418C378.243 8.37212 378.591 8.00004 378.58 7.89793C378.672 7.7851 378.746 7.75152 378.802 7.79721C378.853 7.79184 378.876 7.76364 378.871 7.71258C378.86 7.61048 378.906 7.55406 379.008 7.54333C379.059 7.53797 379.181 7.4735 379.375 7.34993L379.862 6.83412L380.58 6.29416L383.127 4.01338C383.743 3.48415 384.279 2.93745 384.736 2.37327L385.445 1.75674C385.536 1.6439 385.668 1.4236 385.84 1.09582C385.87 0.886247 385.976 0.668625 386.159 0.442952C386.387 0.160863 386.665 0.105825 386.993 0.277839C387.286 0.608374 387.331 1.04232 387.13 1.57967C387.049 1.79461 386.737 2.26611 386.195 2.99418C385.697 3.66583 385.281 4.12253 384.945 4.3643C384.757 4.53892 383.619 5.74248 381.531 7.97497L378.749 10.9772L377.713 12.17C376.276 13.7147 373.788 16.815 370.252 21.4709L366.825 25.7022L365.95 26.9555L366.027 26.9475C366.129 26.9368 366.206 26.9287 366.257 26.9233C366.359 26.9126 366.486 26.8992 366.64 26.8831C366.793 26.867 366.92 26.8536 367.022 26.8429L371.073 26.3397C373.462 25.9854 374.832 25.764 375.184 25.6753C375.587 25.5814 376.751 25.3558 378.674 24.9988C379.69 24.8404 380.334 24.8244 380.605 24.9507C381.199 25.198 381.185 25.5607 380.565 26.0389L379.525 26.4579C379.173 26.5465 378.884 26.4995 378.658 26.3167C378.438 26.185 377.82 26.1984 376.804 26.3567C374.007 26.7539 371.616 27.0827 369.63 27.343C367.945 27.5201 366.751 27.6973 366.047 27.8745L365.136 28.0476L364.253 29.2244L363.088 30.663L362.153 32.0775L360.601 34.2537L357.848 38.2594L355.558 41.5196L353.687 44.3487C353.504 44.5743 353.267 45.0123 352.974 45.6625C352.726 46.2562 352.608 46.6042 352.619 46.7063C352.63 46.8084 352.597 46.9924 352.522 47.2584C352.441 47.4734 352.375 47.5835 352.324 47.5889L351.925 47.476C351.665 47.4517 351.521 47.312 351.494 47.0567C351.419 46.342 351.701 45.5897 352.341 44.7999L352.865 43.8931C353.128 43.4525 353.309 43.2013 353.405 43.1395L354.212 41.9708C354.343 41.7505 354.566 41.4174 354.881 40.9714L355.344 40.2259C355.39 40.1695 356.179 39.08 357.711 36.9576L358.38 35.9582L361.202 31.8678L362.701 29.9294L363.782 28.4223L363.085 28.4181L361.255 28.6879L358.591 29.1227C357.223 29.3697 356.374 29.6396 356.043 29.9324C355.86 30.1581 355.576 30.3945 355.189 30.6416L351.162 34.3167C351.065 34.3785 350.94 34.4174 350.787 34.4335C350.679 34.3932 350.509 34.4886 350.275 34.7196C350.087 34.8942 349.998 35.0326 350.009 35.1347C350.036 35.3899 349.594 35.8493 348.683 36.5129L344.64 40.0348L335.945 47.9168L335.09 48.626L333.748 49.851L329.85 53.2802C329.286 53.8041 328.543 54.3467 327.621 54.9082C327.189 55.2117 326.687 55.5999 326.118 56.0727C325.741 56.4219 324.211 57.3312 321.527 58.8005C318.888 60.2134 317.316 60.9722 316.811 61.0769C316.556 61.1038 316.183 61.2461 315.694 61.504C313.284 62.6348 311.513 62.9758 310.382 62.5269ZM381.243 31.1551C381.616 31.2707 381.484 31.491 380.848 31.816C380.796 31.8214 380.723 31.8549 380.626 31.9167C380.04 32.2364 379.625 32.4607 379.38 32.5896L378.945 32.8676L378.143 33.339L377.119 33.9112C375.448 34.7063 374.138 35.2569 373.189 35.563L371.605 35.9618C370.697 36.1605 370.02 36.1026 369.574 35.7882C369.246 35.6161 369.098 35.1929 369.131 34.5185L369.244 34.1195L369.373 33.8737C368.403 33.9757 367.704 34.2039 367.277 34.5585L366.35 36.0496L366.281 36.1342L365.761 36.3437C365.608 36.3598 365.501 36.3195 365.439 36.2228C365.321 36.0804 365.307 35.9527 365.399 35.8399L365.374 35.6102C365.786 35.1024 366.087 34.5288 366.277 33.8893L367.076 32.6441C367.465 31.9321 367.807 31.7414 368.099 32.0719C368.274 32.26 368.301 32.5153 368.18 32.8377L367.785 33.4986L369.675 33.0677L369.752 33.0596L370.429 32.1368C371.117 31.8064 371.525 31.7635 371.654 32.008C371.721 32.1558 371.59 32.3761 371.259 32.6689C370.324 33.5931 369.96 34.3024 370.167 34.7968C370.317 35.2455 370.798 35.4014 371.609 35.2645C372.416 35.0766 373.759 34.5999 375.64 33.8344C376.333 33.5551 377.462 32.9977 379.026 32.1623C380.396 31.4505 381.135 31.1147 381.243 31.1551ZM384.995 30.9929C385.121 30.7216 385.009 30.6302 384.657 30.7188C383.652 30.9793 382.448 31.8026 381.045 33.1889C381.005 33.2963 380.936 33.381 380.839 33.4427L380.771 33.5274L380.11 34.6034L380.041 34.688L379.521 34.8975C379.368 34.9136 379.261 34.8733 379.199 34.7765C379.081 34.6341 379.067 34.5065 379.159 34.3936L379.135 34.1639C379.546 33.6561 379.847 33.0825 380.038 32.4431L380.501 31.6975C380.891 30.9856 381.232 30.7949 381.525 31.1254C381.7 31.3135 381.726 31.5688 381.605 31.8912L381.537 31.9758L382.613 31.1659C384.44 29.8899 385.539 29.5421 385.91 30.1225C386.141 30.3563 386.196 30.6344 386.075 30.9568C386.005 31.2739 385.817 31.4485 385.511 31.4807C385.256 31.5075 385.097 31.4726 385.035 31.3758C384.917 31.2334 384.904 31.1058 384.995 30.9929ZM398.977 29.2137C399.272 29.0794 399.454 29.0862 399.521 29.2339C399.577 29.2796 399.511 29.3898 399.323 29.5644C399.227 29.6262 399.13 29.688 399.033 29.7498L398.819 29.9271C398.091 30.3649 397.483 30.7128 396.994 30.9706C396.556 31.2231 396.067 31.481 395.526 31.7442C395.037 32.0021 394.574 32.2573 394.136 32.5098C391.309 34.0973 388.533 35.1891 385.809 35.7852C384.742 35.9489 383.973 36.0039 383.503 35.95C382.195 35.7779 381.684 34.8508 381.972 33.1689C382.072 32.6422 382.39 32.4797 382.927 32.6813C383.193 32.7566 383.283 32.8762 383.197 33.0401C382.977 33.8891 382.906 34.4386 382.983 34.6885C383.083 35.1426 383.796 35.2999 385.123 35.1604C387.66 34.7389 390.668 33.6485 394.148 31.8891L396.562 30.5514L398.977 29.2137ZM400.542 34.2366C399.629 34.3842 398.937 34.4312 398.466 34.3773C397.209 34.1998 396.695 33.4796 396.923 32.2168C396.907 32.0637 397.005 31.7695 397.217 31.3342C397.981 29.7571 399.224 28.5684 400.946 27.7679C402.123 27.1797 402.81 27.0817 403.006 27.474C403.067 27.5708 402.959 27.7629 402.679 28.0503C402.451 28.3324 402.052 28.7099 401.482 29.1827C400.445 30.1176 399.528 30.73 398.733 31.0201C398.29 31.2215 398.028 31.4297 397.947 31.6447C397.627 32.0396 397.602 32.5326 397.87 33.1238C397.969 33.5779 398.632 33.7406 399.857 33.6118C402.394 33.1903 405.402 32.0999 408.882 30.3406L411.296 29.0029L413.71 27.6652C414.006 27.5309 414.187 27.5376 414.254 27.6854C414.311 27.7311 414.245 27.8412 414.057 28.0158C413.96 28.0776 413.863 28.1394 413.767 28.2012L413.553 28.3785C412.825 28.8164 412.216 29.1642 411.727 29.4221C411.289 29.6746 410.8 29.9324 410.26 30.1957C409.771 30.4535 409.307 30.7087 408.869 30.9612C406.042 32.5488 403.267 33.6405 400.542 34.2366ZM398.874 30.1536L399.616 29.8434C399.764 29.7762 399.909 29.6835 400.051 29.5653C401.013 28.8965 401.608 28.421 401.837 28.1389C401.831 28.0878 401.681 28.1294 401.385 28.2637C401.135 28.3416 400.891 28.4706 400.652 28.6505C400.402 28.7284 400.04 28.9729 399.567 29.3839C399.146 29.7896 398.914 30.0461 398.874 30.1536ZM424.382 31.731C423.315 31.8947 422.547 31.9496 422.076 31.8958C420.507 31.6994 419.867 30.7603 420.154 29.0783C420.214 28.6592 420.192 28.4549 420.09 28.4657C420.085 28.4146 419.96 28.4536 419.715 28.5825C419.14 29.0043 418.197 29.3615 416.886 29.6541C416.477 29.6971 416.163 29.6527 415.943 29.521C415.722 29.3893 415.658 29.267 415.749 29.1542L414.879 29.7102C414.69 29.8849 414.477 30.0622 414.238 30.2422C413.042 31.1421 412.331 31.5007 412.105 31.3179C411.936 31.1809 411.929 30.8719 412.085 30.3909C412.464 29.5769 413.202 28.4928 414.299 27.1388C414.395 27.077 414.523 27.0636 414.681 27.0985C414.891 27.1281 414.999 27.1684 415.004 27.2195L415.028 27.4492C415.157 27.6938 414.805 28.2727 413.972 29.1862L413.698 29.5247C413.754 29.5703 413.831 29.5623 413.927 29.5005L414.073 29.4078L414.363 29.2225L414.5 29.0532L415.576 28.2433L415.927 27.8967C416.349 27.4911 416.701 27.4025 416.983 27.6309C417.096 27.7223 417.117 27.9265 417.047 28.2435C416.921 28.5149 416.937 28.668 417.095 28.703C417.305 28.7326 418.004 28.5043 419.191 28.0182C420.374 27.481 421.01 27.156 421.102 27.0431C421.529 26.6885 421.907 26.5972 422.234 26.7692C422.46 26.952 422.433 27.1871 422.154 27.4745C421.538 28.0038 421.22 28.6566 421.198 29.4331C421.206 30.0001 421.3 30.4031 421.48 30.6423C421.784 31.0749 422.523 31.2295 423.697 31.1061C425.927 30.7169 428.93 29.5754 432.705 27.6817L433.668 27.2708L436.083 25.9331L436.381 25.8243L437.107 25.3609C437.158 25.3556 437.232 25.322 437.328 25.2602C437.425 25.1984 437.499 25.1649 437.55 25.1595L437.78 25.1353C437.949 25.2724 438.011 25.3691 437.965 25.4256C437.971 25.4766 437.851 25.5666 437.606 25.6955L437.393 25.8728C436.033 26.6868 434.472 27.5477 432.709 28.4556C429.882 30.0431 427.106 31.1349 424.382 31.731ZM439.566 28.4317C439.311 28.4585 439.093 28.3524 438.913 28.1132C438.682 27.8794 438.601 27.604 438.671 27.2869C438.644 27.0317 438.694 26.7684 438.821 26.497L438.994 25.9368C438.989 25.8858 438.889 25.922 438.696 26.0456C438.553 26.1638 438.365 26.3384 438.131 26.5695C437.892 26.7494 437.679 26.9267 437.49 27.1014C436.504 28.0309 435.705 28.5278 435.092 28.5922C434.633 28.6405 434.387 28.5115 434.355 28.2052C434.339 28.052 434.493 27.8035 434.818 27.4596C435.657 26.5973 436.75 25.7081 438.099 24.7921C438.725 24.3649 439.112 24.1178 439.26 24.0507C439.459 23.9781 439.592 24.0158 439.659 24.1636C439.67 24.2657 439.803 24.3033 440.058 24.2765C440.262 24.255 440.395 24.2927 440.457 24.3894C440.565 24.4297 440.578 24.5573 440.497 24.7723C440.411 24.9362 440.348 25.0719 440.308 25.1793C440.268 25.2868 440.179 25.4252 440.042 25.5944C439.459 26.4299 439.324 27.1151 439.639 27.6498C439.649 27.7519 439.731 27.7949 439.884 27.7788C440.089 27.7574 440.265 27.7131 440.412 27.6459L440.711 27.5372C441.608 27.2364 443.738 26.1351 447.099 24.2333L447.244 24.1406L447.474 24.1164L447.559 24.185C447.615 24.2307 447.649 24.3045 447.659 24.4067C447.665 24.4577 447.645 24.5114 447.599 24.5679L443.443 27.0177L440.715 28.311L440.485 28.3351C440.184 28.4184 439.878 28.4506 439.566 28.4317ZM435.173 27.8869L435.616 27.6855C436.68 27.0059 437.327 26.525 437.555 26.2429C437.738 26.0172 438.071 25.7499 438.555 25.441C438.85 25.3067 438.993 25.1885 438.982 25.0864C438.966 24.9333 438.67 25.0676 438.095 25.4893C437.026 26.1179 436.194 26.7989 435.6 27.5323L435.173 27.8869Z" fill="#7C1111"/>
</g>
<defs>
<clipPath id="clip0_46_50">
<rect width="412" height="83" fill="white"/>
</clipPath>
</defs>
</svg>
